<?xml version="1.0" encoding="UTF-8" standalone="no"?>
<svg width="91px" height="76px" viewBox="0 0 91 76" version="1.1" xmlns="http://www.w3.org/2000/svg" xmlns:xlink="http://www.w3.org/1999/xlink">
    <!-- Generator: Sketch 3.6.1 (26313) - http://www.bohemiancoding.com/sketch -->
    <title>spot</title>
    <desc>Created with Sketch.</desc>
    <defs></defs>
    <g id="Page-1" stroke="none" stroke-width="1" fill="none" fill-rule="evenodd">
        <g id="spot">
            <g id="Hue-light-2" transform="translate(50.871843, 31.366972) rotate(-78.000000) translate(-50.871843, -31.366972) translate(12.871843, -17.133028)">
                <path d="M0.921363315,22.8375518 C4.0289273,57.9464131 1.82576834,74.4618405 3.2685659,96.4910688 C19.7509342,83.9687194 59.8517333,83.4067131 75.9822573,79.7229747 C66.0314407,53.1717213 56.5009481,33.3031473 49.7285366,11.7438318 C39.01972,-9.81548375 -1.5368237,1.38449801 0.921363315,22.8375518" id="Fill-1" fill="#1D3C49"></path>
                <path d="M14.8718698,42.3866324 C14.6026735,38.2778472 10.9354647,39.1184952 11.0771469,42.0678473 C11.2400815,46.0892618 11.8068105,62.9541721 12.3522871,70.4444403 C12.6120379,74.0691445 16.3737016,73.5520043 16.102144,70.5270883 C15.8825365,68.0665399 15.38901,50.0917853 14.8718698,42.3866324" id="Fill-7" fill="#FEFEFE"></path>
                <path d="M50.4416706,35.0496171 C49.100412,31.4012992 45.7708791,33.1180158 46.687091,35.755667 C47.9079197,39.3614802 52.8904121,54.509674 55.3911038,61.1640169 C56.5954029,64.3849267 60.0925931,62.9255995 59.0417831,60.2548892 C58.17516,58.0777053 52.9612533,41.9023152 50.4416706,35.0496171" id="Fill-9" fill="#FEFEFE"></path>
                <path d="M38.1209823,38.286112 C37.0654495,34.5575074 33.6178481,36.0428097 34.3309821,38.7300497 C35.2684463,42.4043426 39.0749761,57.824094 41.0561662,64.624842 C42.01016,67.9118702 45.6088891,66.7004869 44.7587956,63.9660195 C44.0645526,61.7416082 40.1092565,45.285215 38.1209823,38.286112" id="Fill-11" fill="#FEFEFE"></path>
                <path d="M26.6473176,40.8918846 C26.0546135,36.9672864 22.4558844,38.0558783 22.8360651,40.8824392 C23.3083393,44.7432804 25.1879905,60.9257546 26.3167257,68.0948764 C26.8551183,71.5590074 30.5695545,70.7679481 30.0642212,67.8776303 C29.6509813,65.5257049 27.7571619,48.2688071 26.6473176,40.8918846" id="Fill-13" fill="#FEFEFE"></path>
            </g>
        </g>
    </g>
</svg>