<svg height="88" viewBox="0 0 403 88" width="403" xmlns="http://www.w3.org/2000/svg"><g fill="none" fill-rule="evenodd"><path d="m0 0v43.809519l45.3890785 44.190481h357.6109215v-44.190481l-45.389078-43.809519z" fill="#c3c3c3"/><path d="m93.8113947 53.707858c0-.9693116-.0442579.0390691 0 0m12.1870923 4.0837136c0-2.2423352-.8409-5.691248-4.621262-7.8534489-1.5734248-.9000139-3.3854452-.1759533-5.5342227 1.7290193l-2.0316076 2.0418567v12.2502852h8.1244443c3.071952 0 4.062648-1.1207398 4.062648-4.0839987.003404-.0322249 0-4.0480667 0-4.0837136m-52.8098817-4.0837136c.0442579.0390691 0-.9693116 0 0m-7.5658304-3.7697353c-3.7800781 2.1622009-4.6212618 5.6111137-4.6212618 7.8534489 0 .0356469-.0034045 4.0514887 0 4.0837136 0 2.9632589.9906959 4.082858 4.0626478 4.082858h8.1244444v-12.2502852l-2.0313239-2.040716c-2.1487775-1.9049726-3.9607979-2.6290332-5.5345065-1.7290193m48.2064932-4.4225021c1.629031 0 6.0874465-2.1242725 6.0874465-6.5333713v-3.2661153c0-4.4090989-3.2160737-6.5333714-6.0874465-6.5333714-2.7760481 0-6.0874464 2.1242725-6.0874464 6.5333714v3.2661153c0 4.4090988 4.5446616 6.5333713 6.0874464 6.5333713m-4.1503124 8.168853c-.0034045-.0322248-.0121993-.0624534-.0156038-.0935375-.0476623-.3855573-.1205744-.7608483-.2215731-1.1295803 0-.0034221 0-.0068442-.0034045-.0099811-.2127783-.7833772-.5716645-1.5373813-1.1081496-2.2805487v-.003137c-.8789164-1.2231178-2.2052347-2.4707607-4.3608211-3.6884603-1.1393571-.6427856-1.6400955-.9379423-2.345101-.9379423-1.1203489 0-2.0977108.8754889-3.7446151 2.3960448h-.0034045l-1.4982432 1.3848124c-.0530527.0513316-1.6690333 2.3449984-2.8778979 2.3449984-1.2091484 0-2.8248453-2.2936668-2.8781817-2.3449984l-1.4982432-1.3848124h-.0034045c-1.6469043-1.5205559-2.6242662-2.3960448-3.7446151-2.3960448-.7047218 0-1.3331272.2951567-2.345101.9379423-2.0889159 1.3257811-3.4819047 2.4630611-4.3574167 3.6850382l-.0034044.0011407c-.0031208.0034221-.0031208.0076998-.0065252.0111219-.5296762.7374639-.8854416 1.4871904-1.0970851 2.2645788-.0034045.0068443-.0068089.014544-.0102134.0225289-.0984454.3664506-.1716412.7371788-.2181687 1.1181733-.0034045.0356469-.0133341.0692976-.0167386.1038038-.0442579.4055197-.0697913.818739-.0697913 1.247643 0 .0479095-.0011348 8.9416787 0 8.9830291 0 2.9028017 1.0882903 4.0837136 4.0629315 4.0837136h24.3730495c2.9998909 0 4.0626478-1.1173177 4.0626478-4.0837136 0-.0413504-.0011348-8.9351196-.0011348-8.9830291 0-.428904-.0255334-.8421233-.0697913-1.2487837m-36.4727608-8.168853c1.6293147 0 6.0874465-2.1242725 6.0874465-6.5333713v-3.2661153c0-4.4090989-3.21579-6.5333714-6.0874465-6.5333714-2.776048 0-6.0874464 2.1242725-6.0874464 6.5333714v3.2661153c0 4.4090988 4.5449453 6.5333713 6.0874464 6.5333713m20.293947-1.9882437c5.6973528 0 10.1291-5.9399211 10.1291-12.0888759v-1.9272162c0-6.147814-4.4317472-10.5112848-10.1291-10.5112848-5.6984877 0-10.1291001 4.3623301-10.1291001 10.5112848v1.9272162c0 6.1489548 4.4306124 12.0888759 10.1291001 12.0888759" fill="#626262"/></g></svg>