<?xml version="1.0" encoding="UTF-8" standalone="no"?>
<svg width="90px" height="90px" viewBox="0 0 90 90" version="1.1" xmlns="http://www.w3.org/2000/svg" xmlns:xlink="http://www.w3.org/1999/xlink" xmlns:sketch="http://www.bohemiancoding.com/sketch/ns">
    <!-- Generator: Sketch 3.5.1 (25234) - http://www.bohemiancoding.com/sketch -->
    <title>bericht</title>
    <desc>Created with Sketch.</desc>
    <defs></defs>
    <g id="Page-1" stroke="none" stroke-width="1" fill="none" fill-rule="evenodd" sketch:type="MSPage">
        <g id="bericht" sketch:type="MSArtboardGroup">
            <path d="M46,74 L26,74 C24.895,74 24,73.105 24,72 L24,30 C24,28.895 24.895,28 26,28 L46,28 C47.105,28 48,28.895 48,30 L48,72 C48,73.105 47.105,74 46,74" id="Fill-3" fill="#FFFFFF" sketch:type="MSShapeGroup"></path>
            <path d="M48,62 L24,62 L24,36 L48,36 L48,62 Z" id="Fill-5" fill="#83AEED" sketch:type="MSShapeGroup"></path>
            <path d="M38,28 L26,28 C24.895,28 24,28.895 24,30 L24,72 C24,73.105 24.895,74 26,74 L46,74 C47.105,74 48,73.105 48,72 L48,46" id="Stroke-7" stroke="#0E1011" stroke-width="2" stroke-linecap="round" stroke-linejoin="round" sketch:type="MSShapeGroup"></path>
            <path d="M42,20 L42,32 C42,34.209 43.791,36 46,36 L48,36 L48,42 L54,36 L66,36 C68.209,36 70,34.209 70,32 L70,20 C70,17.791 68.209,16 66,16 L46,16 C43.791,16 42,17.791 42,20" id="Fill-8" fill="#76D03B" sketch:type="MSShapeGroup"></path>
            <path d="M42,20 L42,32 C42,34.209 43.791,36 46,36 L48,36 L48,42 L54,36 L66,36 C68.209,36 70,34.209 70,32 L70,20 C70,17.791 68.209,16 66,16 L46,16 C43.791,16 42,17.791 42,20 L42,20 Z" id="Stroke-9" stroke="#2B3F14" stroke-width="2" stroke-linecap="round" stroke-linejoin="round" sketch:type="MSShapeGroup"></path>
            <path d="M48,62 L24,62" id="Stroke-10" stroke="#0E1011" stroke-width="2" stroke-linecap="round" stroke-linejoin="round" sketch:type="MSShapeGroup"></path>
            <path d="M24,36 L39,36" id="Stroke-11" stroke="#0E1011" stroke-width="2" stroke-linecap="round" stroke-linejoin="round" sketch:type="MSShapeGroup"></path>
            <path d="M34,32 L38,32" id="Stroke-12" stroke="#0E1011" stroke-width="2" stroke-linecap="round" stroke-linejoin="round" sketch:type="MSShapeGroup"></path>
            <path id="Stroke-13" stroke="#2B3F14" stroke-width="2" stroke-linecap="round" stroke-linejoin="round" sketch:type="MSShapeGroup"></path>
            <path id="Stroke-14" stroke="#2B3F14" stroke-width="2" stroke-linecap="round" stroke-linejoin="round" sketch:type="MSShapeGroup"></path>
            <path id="Stroke-15" stroke="#2B3F14" stroke-width="2" stroke-linecap="round" stroke-linejoin="round" sketch:type="MSShapeGroup"></path>
            <path d="M38,68 C38,69.105 37.105,70 36,70 C34.895,70 34,69.105 34,68 C34,66.895 34.895,66 36,66 C37.105,66 38,66.895 38,68" id="Fill-16" fill="#5B6875" sketch:type="MSShapeGroup"></path>
            <path d="M38,68 C38,69.105 37.105,70 36,70 C34.895,70 34,69.105 34,68 C34,66.895 34.895,66 36,66 C37.105,66 38,66.895 38,68 L38,68 Z" id="Stroke-17" stroke="#0E1011" stroke-width="2" stroke-linecap="round" stroke-linejoin="round" sketch:type="MSShapeGroup"></path>
        </g>
    </g>
</svg>