<svg height="90" viewBox="0 0 90 90" width="90" xmlns="http://www.w3.org/2000/svg" xmlns:xlink="http://www.w3.org/1999/xlink"><mask id="a" fill="#fff"><path d="m0 0h90v90h-90z" fill="none"/></mask><g fill="none" fill-rule="evenodd"><path d="m56 69h-20c-1.105 0-2-.895-2-2v-42c0-1.105.895-2 2-2h20c1.105 0 2 .895 2 2v42c0 1.105-.895 2-2 2" fill="#fff"/><path d="m58 57h-24v-26h24z" fill="#83aeed" mask="url(#a)"/><g stroke="#0e1011" stroke-linecap="round" stroke-linejoin="round" stroke-width="2"><path d="m58 27v40c0 1.105-.895 2-2 2h-20c-1.105 0-2-.895-2-2v-42c0-1.105.895-2 2-2h12 8s2 0 2 4z" mask="url(#a)"/><path d="m58 57h-24" mask="url(#a)"/><path d="m34 31h23" mask="url(#a)"/><path d="m44 27h4" mask="url(#a)"/></g><path d="m48 63c0 1.105-.895 2-2 2s-2-.895-2-2 .895-2 2-2 2 .895 2 2" fill="#5b6875" mask="url(#a)"/><path d="m48 63c0 1.105-.895 2-2 2s-2-.895-2-2 .895-2 2-2 2 .895 2 2z" mask="url(#a)" stroke="#0e1011" stroke-linecap="round" stroke-linejoin="round" stroke-width="2"/></g></svg>