<svg height="90" viewBox="0 0 90 90" width="90" xmlns="http://www.w3.org/2000/svg" xmlns:xlink="http://www.w3.org/1999/xlink"><mask id="a" fill="#fff"><path d="m0 0h90v90h-90z" fill="none"/></mask><g fill="none" fill-rule="evenodd"><path d="m46 74h-20c-1.105 0-2-.895-2-2v-42c0-1.105.895-2 2-2h20c1.105 0 2 .895 2 2v42c0 1.105-.895 2-2 2" fill="#fff"/><path d="m48 62h-24v-26h24z" fill="#83aeed" mask="url(#a)"/><path d="m38 28h-12c-1.105 0-2 .895-2 2v42c0 1.105.895 2 2 2h20c1.105 0 2-.895 2-2v-26" mask="url(#a)" stroke="#0e1011" stroke-linecap="round" stroke-linejoin="round" stroke-width="2"/><path d="m42 20v12c0 2.209 1.791 4 4 4h2v6l6-6h12c2.209 0 4-1.791 4-4v-12c0-2.209-1.791-4-4-4h-20c-2.209 0-4 1.791-4 4" fill="#76d03b" mask="url(#a)"/><g stroke-linecap="round" stroke-linejoin="round" stroke-width="2"><path d="m42 20v12c0 2.209 1.791 4 4 4h2v6l6-6h12c2.209 0 4-1.791 4-4v-12c0-2.209-1.791-4-4-4h-20c-2.209 0-4 1.791-4 4z" mask="url(#a)" stroke="#2b3f14"/><path d="m48 62h-24" mask="url(#a)" stroke="#0e1011"/><path d="m24 36h15" mask="url(#a)" stroke="#0e1011"/><path d="m34 32h4" mask="url(#a)" stroke="#0e1011"/></g><path d="m38 68c0 1.105-.895 2-2 2s-2-.895-2-2 .895-2 2-2 2 .895 2 2" fill="#5b6875" mask="url(#a)"/><path d="m38 68c0 1.105-.895 2-2 2s-2-.895-2-2 .895-2 2-2 2 .895 2 2z" mask="url(#a)" stroke="#0e1011" stroke-linecap="round" stroke-linejoin="round" stroke-width="2"/><path d="m51 26c0 .552-.448 1-1 1s-1-.448-1-1 .448-1 1-1 1 .448 1 1" fill="#2b3f14" mask="url(#a)"/><path d="m57 26c0 .552-.448 1-1 1s-1-.448-1-1 .448-1 1-1 1 .448 1 1" fill="#2b3f14" mask="url(#a)"/><path d="m63 26c0 .552-.448 1-1 1s-1-.448-1-1 .448-1 1-1 1 .448 1 1" fill="#2b3f14" mask="url(#a)"/></g></svg>