<?xml version="1.0" encoding="UTF-8" standalone="no"?>
<svg preserveAspectRatio="false" width="100%" height="100%" viewBox="0 0 1672 915" version="1.1" xmlns="http://www.w3.org/2000/svg" xmlns:xlink="http://www.w3.org/1999/xlink">
    <!-- Generator: Sketch 3.6.1 (26313) - http://www.bohemiancoding.com/sketch -->
    <title>bg-mainbord</title>
    <desc>Created with Sketch.</desc>
    <defs></defs>
    <g id="Page-1" stroke="none" stroke-width="1" fill="none" fill-rule="evenodd">
        <g id="bg-mainbord">
            <path d="M1666.16608,160.700678 C1666.28226,161.45314 1666.34253,162.224004 1666.34253,163.00888 L1666.34253,893.99112 C1666.34253,902.280295 1659.63247,909 1651.34055,909 L21.3445208,909 C13.0591525,909 6.34253438,902.276282 6.34253438,893.99112 L6.34253438,290 L6,290 L6,105.886452 L126.135804,6 L1666.16608,6 L1666.16608,160.700678 Z" id="Combined-Shape" stroke="#FFAD00" stroke-width="5"></path>
            <path d="M1660.82464,162.672767 C1660.9401,163.420229 1661,164.18597 1661,164.965632 L1661,891.090847 C1661,899.324945 1654.33174,906 1646.09146,906 L26.2489373,906 C18.0151799,906 11.3404007,899.320958 11.3404007,891.090847 L11.3404007,291.112957 L11,291.112957 L11,108.222754 L130.387459,9 L1660.82464,9 L1660.82464,162.672767 Z" id="Combined-Shape" fill-opacity="0.95" fill="#E5E5E5"></path>
        </g>
    </g>
</svg>
