<svg height="32" viewBox="0 0 1000 32" width="1000" xmlns="http://www.w3.org/2000/svg"><g fill="none" fill-rule="evenodd" stroke="#be0000" stroke-linecap="round" stroke-width="4"><path d="m753.912565-238.786789s1.872593 321.5455978 1.87422 478.301117c.000109 10.515625-12.804687 7.330078-6.982422 10.910156 5.822266 3.580078 8.329102 2.508789 3.22699 7.558965-5.102113 5.050176-5.162536 5.416621-5.162536 5.416621" transform="matrix(0 1 -1 0 763.634442 -739.02116)"/><path d="m234.90779-247.559032s.000001 34.096098.000001 36.191406c0 33.693836-.000001 325.76951-.000001 473.347656 0 4.353516-9.995743 5.071289-3.522285 8.136719 2.249355 1.065156 11.962444-2.491211 3.522285 5.417969-8.440158 7.90918-7.043769 6.942383-7.043769 6.942383" transform="matrix(0 -1 1 0 215.559032 250.514412)"/></g></svg>