<svg height="90" viewBox="0 0 90 90" width="90" xmlns="http://www.w3.org/2000/svg"><g fill="none" fill-rule="evenodd"><path d="m58.5 90v-26" fill="#000"/><path d="m58.5 90v-26" stroke="#1d1d1b" stroke-width="3"/><path d="m38.5 26v-35" fill="#000"/><path d="m38.5 26v-35" stroke="#1d1d1b" stroke-width="3"/><g transform="translate(24 25)"><path d="m27.1436 15.1444h1.441v7.384c0 1.552-.776 2.438-2.272 2.438s-2.272-.886-2.272-2.438v-7.384h1.523v7.48c0 .693.305.942.79.942s.79-.249.79-.942zm-5.264 3.754c0 .693-.263.915-.748.915h-.721v-3.283h.721c.485 0 .748.221.748.913zm-.748-3.754h-2.244v9.697h1.523v-3.643h.721c1.523 0 2.272-.846 2.272-2.396v-1.261c0-1.552-.749-2.397-2.272-2.397zm-3.172 2.327v.942h-1.441v-1.038c0-.692-.305-.956-.79-.956s-.79.264-.79.956v5.235c0 .693.305.942.79.942s.79-.249.79-.942v-1.384h1.441v1.288c0 1.551-.776 2.438-2.272 2.438s-2.272-.887-2.272-2.438v-5.043c0-1.551.776-2.438 2.272-2.438s2.272.887 2.272 2.438zm-5.289 12.341c-.818 0-1.483-.665-1.483-1.484v-16.656c0-.819.665-1.485 1.483-1.485h16.657c.82 0 1.485.666 1.485 1.485v16.656c0 .819-.665 1.484-1.485 1.484zm23.429.475c0 2.653-2.159 4.813-4.812 4.813h-4.977c-.689 0-1.247-.559-1.247-1.247 0-.689.559-1.247 1.247-1.247h4.977c1.278 0 2.319-1.041 2.319-2.319v-20.575c0-1.278-1.041-2.319-2.319-2.319h-20.576c-1.277 0-2.318 1.041-2.318 2.319v20.575c0 1.278 1.039 2.319 2.318 2.319h4.978c.689 0 1.247.558 1.247 1.247 0 .688-.559 1.247-1.247 1.247h-4.978c-2.653 0-4.811-2.16-4.811-4.813v-20.575c0-2.654 2.158-4.812 4.811-4.812h20.576c2.653 0 4.812 2.159 4.812 4.812zm4.9 7.386v-35.347c-.651.359-1.485.264-2.037-.289-.553-.552-.648-1.386-.289-2.037h-30.584v.587c0 .52-.422.943-.943.943s-.943-.423-.943-.943v-.587h-2.877c.359.651.263 1.485-.289 2.037-.552.553-1.387.648-2.038.289v35.347c.651-.359 1.486-.263 2.038.289s.648 1.386.289 2.038h2.877v-.586c0-.522.422-.943.943-.943s.943.421.943.943v.586h30.584c-.359-.652-.264-1.486.289-2.038.552-.552 1.386-.648 2.037-.289z" fill="#81d4ef"/><path d="m40.5 37.6736v-35.347c-.651.359-1.486.263-2.038-.289s-.648-1.387-.288-2.038h-30.584v.587c0 .521-.422.943-.943.943s-.943-.422-.943-.943v-.587h-2.878c.36.651.264 1.486-.288 2.038s-1.387.648-2.038.289v35.347c.651-.359 1.486-.264 2.038.289.552.552.648 1.386.288 2.037h2.878v-.585c0-.522.422-.943.943-.943s.943.421.943.943v.585h30.584c-.36-.651-.264-1.485.288-2.037.552-.553 1.387-.648 2.038-.289z" stroke="#232e38" stroke-width="1.5"/></g></g></svg>