<svg height="42" viewBox="0 0 42 42" width="42" xmlns="http://www.w3.org/2000/svg"><path d="m36.5454545 6h-31.09090905c-1.9 0-3.45454545 1.55454545-3.45454545 3.45454545v5.18181815h3.45454545v-5.18181815h31.09090905v24.18181815h-12.090909v3.4545455h12.090909c1.9 0 3.4545455-1.5545455 3.4545455-3.4545455v-24.18181815c0-1.9-1.5545455-3.45454545-3.4545455-3.45454545zm-34.5454545 25.9090909v5.1818182h5.18181818c0-2.8672727-2.31454545-5.1818182-5.18181818-5.1818182zm0-6.9090909v3.4545455c4.76727273 0 8.6363636 3.8690909 8.6363636 8.6363636h3.4545455c0-6.6845455-5.40636365-12.0909091-12.0909091-12.0909091zm0-6.9090909v3.4545454c8.5845455 0 15.5454545 6.9609091 15.5454545 15.5454546h3.4545455c0-10.5018182-8.5154545-19-19-19z" fill="#fff" fill-rule="evenodd"/></svg>