<?xml version="1.0" encoding="UTF-8" standalone="no"?>
<svg width="42px" height="42px" viewBox="0 0 42 42" version="1.1" xmlns="http://www.w3.org/2000/svg" xmlns:xlink="http://www.w3.org/1999/xlink">
    <!-- Generator: Sketch 3.6.1 (26313) - http://www.bohemiancoding.com/sketch -->
    <title>connected-board</title>
    <desc>Created with Sketch.</desc>
    <defs></defs>
    <g id="Page-1" stroke="none" stroke-width="1" fill="none" fill-rule="evenodd">
        <g id="connected-board" fill="#FFFFFF">
            <path d="M36.5454545,6 L5.45454545,6 C3.55454545,6 2,7.55454545 2,9.45454545 L2,14.6363636 L5.45454545,14.6363636 L5.45454545,9.45454545 L36.5454545,9.45454545 L36.5454545,33.6363636 L24.4545455,33.6363636 L24.4545455,37.0909091 L36.5454545,37.0909091 C38.4454545,37.0909091 40,35.5363636 40,33.6363636 L40,9.45454545 C40,7.55454545 38.4454545,6 36.5454545,6 L36.5454545,6 Z M2,31.9090909 L2,37.0909091 L7.18181818,37.0909091 C7.18181818,34.2236364 4.86727273,31.9090909 2,31.9090909 L2,31.9090909 Z M2,25 L2,28.4545455 C6.76727273,28.4545455 10.6363636,32.3236364 10.6363636,37.0909091 L14.0909091,37.0909091 C14.0909091,30.4063636 8.68454545,25 2,25 L2,25 Z M2,18.0909091 L2,21.5454545 C10.5845455,21.5454545 17.5454545,28.5063636 17.5454545,37.0909091 L21,37.0909091 C21,26.5890909 12.4845455,18.0909091 2,18.0909091 L2,18.0909091 Z" id="Shape"></path>
        </g>
    </g>
</svg>