<?xml version="1.0" encoding="UTF-8" standalone="no"?>
<svg width="90px" height="90px" viewBox="0 0 90 90" version="1.1" xmlns="http://www.w3.org/2000/svg" xmlns:xlink="http://www.w3.org/1999/xlink" xmlns:sketch="http://www.bohemiancoding.com/sketch/ns">
    <!-- Generator: Sketch 3.5.1 (25234) - http://www.bohemiancoding.com/sketch -->
    <title>deur-open</title>
    <desc>Created with Sketch.</desc>
    <defs></defs>
    <g id="Page-1" stroke="none" stroke-width="1" fill="none" fill-rule="evenodd" sketch:type="MSPage">
        <g id="deur-open" sketch:type="MSArtboardGroup">
            <path d="M30,16.0002 L60,16.0002 C61.1,16.0002 62,16.9002 62,18.0002 L62,60.0002 C62,61.1002 61.1,62.0002 60,62.0002 L50,62.0002 L50,29.1902 C50,28.4602 49.6,27.7802 48.96,27.4302 L29,16.5502 L28.73,16.4602 C29.08,16.1702 29.52,16.0002 30,16.0002" id="Fill-4" fill="#76D03B" sketch:type="MSShapeGroup"></path>
            <path d="M50,62.0002 L50,72.3202 C50,73.0702 49.19,73.5602 48.52,73.1902 L30.45,63.3302 C28.94,62.5102 28,60.9302 28,59.2102 L28,18.0002 C28,17.3802 28.28,16.8302 28.73,16.4602 L29,16.5502 L48.96,27.4302 C49.6,27.7802 50,28.4602 50,29.1902 L50,62.0002 Z" id="Fill-6" fill="#EFEBE1" sketch:type="MSShapeGroup"></path>
            <path d="M29.0025,16.547 L48.9575,27.432 C49.6005,27.782 50.0005,28.456 50.0005,29.188 L50.0005,72.316 C50.0005,73.075 49.1875,73.557 48.5215,73.194 L30.4465,63.335 C28.9385,62.512 28.0005,60.931 28.0005,59.214 L28.0005,18 C28.0005,16.896 28.8955,16 30.0005,16 L60.0005,16 C61.1045,16 62.0005,16.896 62.0005,18 L62.0005,60 C62.0005,61.105 61.1045,62 60.0005,62 L50.0005,62" id="Stroke-8" stroke="#232E38" stroke-width="2" stroke-linecap="round" stroke-linejoin="round" sketch:type="MSShapeGroup"></path>
            <path d="M44,44.0002 L44,48.0002" id="Stroke-10" stroke="#232E38" stroke-width="2" stroke-linecap="round" stroke-linejoin="round" sketch:type="MSShapeGroup"></path>
        </g>
    </g>
</svg>