<svg height="90" viewBox="0 0 90 90" width="90" xmlns="http://www.w3.org/2000/svg"><g fill="none" fill-rule="evenodd"><path d="m30 16.0002h30c1.1 0 2 .9 2 2v42c0 1.1-.9 2-2 2h-10v-32.81c0-.73-.4-1.41-1.04-1.76l-19.96-10.88-.27-.09c.35-.29.79-.46 1.27-.46" fill="#76d03b"/><path d="m50 62.0002v10.32c0 .75-.81 1.24-1.48.87l-18.07-9.86c-1.51-.82-2.45-2.4-2.45-4.12v-41.21c0-.62.28-1.17.73-1.54l.27.09 19.96 10.88c.64.35 1.04 1.03 1.04 1.76z" fill="#efebe1"/><g stroke="#232e38" stroke-linecap="round" stroke-linejoin="round" stroke-width="2"><path d="m29.0025 16.547 19.955 10.885c.643.35 1.043 1.024 1.043 1.756v43.128c0 .759-.813 1.241-1.479.878l-18.075-9.859c-1.508-.823-2.446-2.404-2.446-4.121v-41.214c0-1.104.895-2 2-2h30c1.104 0 2 .896 2 2v42c0 1.105-.896 2-2 2h-10"/><path d="m44 44.0002v4"/></g></g></svg>