<svg height="90" viewBox="0 0 90 90" width="90" xmlns="http://www.w3.org/2000/svg"><g fill="none" fill-rule="evenodd"><path d="m30 22h30c1.1 0 2 .9 2 2v42c0 1.1-.9 2-2 2h-10v-32.81c0-.73-.4-1.41-1.04-1.76l-19.96-10.88-.27-.09c.35-.29.79-.46 1.27-.46" fill="#76d03b"/><path d="m62 56.68v10.32c0 .75-.81 1.24-1.48.87l-30.52.13c-1.51-.82-2-1.07-2-2.79v-41.21c0-.62.28-1.17.73-1.54l.27.09 31.96-.31c.64.35 1.04 1.03 1.04 1.76z" fill="#efebe1"/><g stroke="#232e38" stroke-linecap="round" stroke-linejoin="round" stroke-width="2"><path d="m50 68h10c1.105 0 2-.895 2-2v-42c0-1.105-.895-2-2-2h-30c-1.105 0-2 .895-2 2v41.213c0 1.718.492 1.964 2 2.787z"/><path d="m29.0025 22.5468 31.955-.303c.643.351 1.043 1.024 1.043 1.756"/><path d="m56.061 43v4"/></g></g></svg>