<svg height="90" viewBox="0 0 90 90" width="90" xmlns="http://www.w3.org/2000/svg" xmlns:xlink="http://www.w3.org/1999/xlink"><mask id="a" fill="#fff"><path d="m0 0h90.806v94h-90.806z" fill="none"/></mask><mask id="b" fill="#fff"><path d="m45 0c-24.853 0-45 20.147-45 45 0 24.853 20.147 45 45 45 24.853 0 45-20.147 45-45 0-24.853-20.147-45-45-45" fill="none"/></mask><mask id="c" fill="#fff"><path d="m45 0c-24.853 0-45 20.147-45 45 0 24.853 20.147 45 45 45 24.853 0 45-20.147 45-45 0-24.853-20.147-45-45-45z" fill="none"/></mask><g fill="none" fill-rule="evenodd"><path d="m66.258 75h-4.71v-23.967h4.71z" fill="#aa8566" mask="url(#a)"/><path d="m66.258 75h-4.71v-23.967h4.71z" mask="url(#a)" stroke="#383128" stroke-linecap="round" stroke-linejoin="round" stroke-width="2"/><path d="m57.8388 44.3524c-1.494 1.062-3.581.143-3.805-1.676" mask="url(#a)" stroke="#2b3f14" stroke-linecap="round" stroke-linejoin="round" stroke-width="2"/><path d="m70.4891 26.313c-.295 1.809-2.416 2.646-3.868 1.527" mask="url(#a)" stroke="#2b3f14" stroke-linecap="round" stroke-linejoin="round" stroke-width="2"/><path d="m80.3121 32.6864c.626 1.723-.817 3.489-2.63 3.221" mask="url(#a)" stroke="#2b3f14" stroke-linecap="round" stroke-linejoin="round" stroke-width="2"/><path d="m48.193 25.0078c.348-1.8 2.492-2.575 3.911-1.414" mask="url(#a)" stroke="#2b3f14" stroke-linecap="round" stroke-linejoin="round" stroke-width="2"/><path d="m65.7628 2.8715c1.174-1.408 3.426-1.052 4.107.65.562 1.404 2.258 1.955 3.537 1.15 1.552-.977 3.583.058 3.705 1.888.101 1.508 1.544 2.556 3.009 2.186 1.777-.45 3.39 1.163 2.941 2.94-.371 1.465.677 2.908 2.186 3.009 1.829.122 2.864 2.153 1.887 3.705-.805 1.279-.254 2.975 1.15 3.537 1.702.681 2.058 2.933.65 4.107-1.161.968-1.161 2.751 0 3.719 1.408 1.174 1.052 3.426-.65 4.107-1.404.562-1.955 2.258-1.15 3.538.977 1.551-.058 3.583-1.887 3.705-1.509.1-2.557 1.543-2.186 3.008.449 1.778-1.164 3.39-2.941 2.941-1.465-.371-2.908.678-3.009 2.186-.122 1.829-2.153 2.864-3.705 1.888-1.279-.806-2.975-.254-3.537 1.149-.681 1.702-2.933 2.059-4.107.651-.968-1.162-2.751-1.162-3.719 0-1.174 1.408-3.426 1.051-4.107-.651-.562-1.403-2.258-1.955-3.537-1.149-1.552.976-3.584-.059-3.705-1.888-.101-1.508-1.544-2.557-3.009-2.186-1.778.449-3.39-1.163-2.941-2.941.371-1.465-.677-2.908-2.186-3.008-1.829-.122-2.864-2.154-1.888-3.705.806-1.28.255-2.976-1.149-3.538-1.702-.681-2.059-2.933-.65-4.107 1.161-.968 1.161-2.751 0-3.719-1.409-1.174-1.052-3.426.65-4.107 1.404-.562 1.955-2.258 1.149-3.537-.976-1.552.059-3.583 1.888-3.705 1.509-.101 2.557-1.544 2.186-3.009-.449-1.777 1.163-3.39 2.941-2.94 1.465.37 2.908-.678 3.009-2.186.121-1.83 2.153-2.865 3.705-1.888 1.279.805 2.975.254 3.537-1.15.681-1.702 2.933-2.058 4.107-.65.968 1.161 2.751 1.161 3.719 0" fill="#76d03b" mask="url(#b)"/><path d="m65.7628 2.8715c1.174-1.408 3.426-1.052 4.107.65.562 1.404 2.258 1.955 3.537 1.15 1.552-.977 3.583.058 3.705 1.888.101 1.508 1.544 2.556 3.009 2.186 1.777-.45 3.39 1.163 2.941 2.94-.371 1.465.677 2.908 2.186 3.009 1.829.122 2.864 2.153 1.887 3.705-.805 1.279-.254 2.975 1.15 3.537 1.702.681 2.058 2.933.65 4.107-1.161.968-1.161 2.751 0 3.719 1.408 1.174 1.052 3.426-.65 4.107-1.404.562-1.955 2.258-1.15 3.538.977 1.551-.058 3.583-1.887 3.705-1.509.1-2.557 1.543-2.186 3.008.449 1.778-1.164 3.39-2.941 2.941-1.465-.371-2.908.678-3.009 2.186-.122 1.829-2.153 2.864-3.705 1.888-1.279-.806-2.975-.254-3.537 1.149-.681 1.702-2.933 2.059-4.107.651-.968-1.162-2.751-1.162-3.719 0-1.174 1.408-3.426 1.051-4.107-.651-.562-1.403-2.258-1.955-3.537-1.149-1.552.976-3.584-.059-3.705-1.888-.101-1.508-1.544-2.557-3.009-2.186-1.778.449-3.39-1.163-2.941-2.941.371-1.465-.677-2.908-2.186-3.008-1.829-.122-2.864-2.154-1.888-3.705.806-1.28.255-2.976-1.149-3.538-1.702-.681-2.059-2.933-.65-4.107 1.161-.968 1.161-2.751 0-3.719-1.409-1.174-1.052-3.426.65-4.107 1.404-.562 1.955-2.258 1.149-3.537-.976-1.552.059-3.583 1.888-3.705 1.509-.101 2.557-1.544 2.186-3.009-.449-1.777 1.163-3.39 2.941-2.94 1.465.37 2.908-.678 3.009-2.186.121-1.83 2.153-2.865 3.705-1.888 1.279.805 2.975.254 3.537-1.15.681-1.702 2.933-2.058 4.107-.65.968 1.161 2.751 1.161 3.719 0z" mask="url(#c)" stroke="#2b3f14" stroke-linecap="round" stroke-linejoin="round" stroke-width="2"/><path d="m28.8693.6307-22.451.295s-1.76 10.489-3.097 16.769c-.765 3.59-1.8 7.022-2.547 9.305h34.546c-3.282-9.102-6.451-26.369-6.451-26.369" fill="#231917" transform="translate(27 67)"/><path d="m31.9678 33.5169c10.635-3.643 7.287-14.574 6.794-15.164-.492-.591.394-5.219.887-7.977.492-2.757.591-8.271-.887-8.862-1.477-.591-8.271 6.499-8.763 6.401-.493-.099-6.303-1.28-9.552-1.28-3.25 0-9.847 1.575-9.847 1.575-.689.197-4.924-4.726-6.598-6.597s-3.052-.394-3.84 4.431 1.772 11.521 2.068 12.309c.295.787-1.182 1.181-.689 6.794.492 5.613 7.582 8.173 7.582 8.173 1.048 13.63.27 21.682-.414 25.68h23.87c-1.378-9.067-.611-25.483-.611-25.483" fill="#fff" transform="translate(24 35)"/><path d="m44.701 61.969h-.31v-2.609h.31z" fill="#231917"/><path d="m44.5851 61.7417s-4.8 2.536-4.339 3.167 4.339-3.167 4.339-3.167" fill="#231917"/><path d="m44.6788 61.8156s3.859 3.817 4.323 3.188c.464-.628-4.323-3.188-4.323-3.188" fill="#231917"/><path d="m48.816 64.9697-4.242-2.989-3.997 2.889-.182-.251 4.176-3.019 4.424 3.116z" fill="#231917"/><path d="m44.561 60.0048s-2.988-.573-2.576-1.877c.324-1.027 2.56-.788 2.56-.788s2.364-.148 2.462.788c.098.929-1.264 1.483-2.446 1.877" fill="#f49187"/><path d="m62.5352 35.8493c-1.477-.591-8.403 7.156-8.895 7.057-.493-.098-5.944-1.272-9.193-1.272-3.25 0-9.847 1.576-9.847 1.576-.69.197-4.924-4.727-6.598-6.598s-3.053-.394-3.84 4.431c-.788 4.825 1.772 11.521 2.067 12.309.296.788-1.181 1.182-.689 6.795.087.985.379 1.874.798 2.674 1.156-.528 2.35-.736 3.215-1.213 5.101-1.451 7.954-3.566 9.162-4.65 1.415-1 2.192-2.666 2.58-4.984.999-5.955 4.429-7.034 5.318-2.659.945 4.655 1.614 7.399 4.33 8.506 1.877 1.164 5.214 2.861 9.73 3.685 0 0-.003-.002-.003-.003.739.192 1.532.274 2.394.363 1.336-4.021-.004-8.157-.302-8.514-.492-.591.394-5.219.886-7.976.493-2.757.364-8.936-1.113-9.527" fill="#231917"/><path d="m39.6217 52.9586c0 1.903-1.543 3.446-3.446 3.446-1.904 0-3.447-1.543-3.447-3.446s1.543-3.446 3.447-3.446c1.903 0 3.446 1.543 3.446 3.446" fill="#ebb744"/><path d="m38.8339 52.9586c0 1.468-1.19 2.659-2.659 2.659-1.468 0-2.658-1.191-2.658-2.659s1.19-2.659 2.658-2.659c1.469 0 2.659 1.191 2.659 2.659" fill="#231917"/><path d="m55.9678 52.9586c0 1.903-1.543 3.446-3.446 3.446-1.904 0-3.447-1.543-3.447-3.446s1.543-3.446 3.447-3.446c1.903 0 3.446 1.543 3.446 3.446" fill="#ebb744"/><path d="m55.18 52.9586c0 1.468-1.19 2.659-2.659 2.659-1.468 0-2.658-1.191-2.658-2.659s1.19-2.659 2.658-2.659c1.469 0 2.659 1.191 2.659 2.659" fill="#231917"/><path d="m55.6938 44.234s4.689-6.729 5.932-6.697c2.037.052.67 13.012-.574 11.672 0 0-3.732-4.21-5.358-4.975" fill="#f49187"/><path d="m32.982 44.4506s-5.275-6.263-6.358-6.164c-1.084.098-1.288 7.732-.601 10.183.558 1.993 1.174 2.551 1.568 2.058.394-.492 5.391-6.077 5.391-6.077" fill="#f49187"/><g fill="#fff"><path d="m49.0629 45.0328c-.004-.061-.403-6.107.768-10.589l.15.04c-1.164 4.456-.767 10.478-.763 10.538z"/><path d="m50.703 45.3388-.155-.012c.006-.077.652-7.733 5.906-12.695l.106.113c-5.209 4.92-5.851 12.518-5.857 12.594"/><path d="m38.7938 45.188-.155-.004c.001-.052.122-5.19-1.906-10.262l.144-.057c2.041 5.102 1.918 10.271 1.917 10.323"/><path d="m37.1862 45.29c-.012-.081-1.301-8.152-5.975-12.342l.103-.116c4.716 4.228 6.013 12.353 6.025 12.434z"/><path d="m50.8283 61.2383-.049-.147c.154-.052 15.52-5.131 24.679-3.919l-.021.154c-9.125-1.208-24.455 3.861-24.609 3.912"/><path d="m75.4487 64.2261c-9.285-3.192-22.186-1.775-22.315-1.761l-.017-.154c.129-.015 13.064-1.435 22.382 1.768z"/><path d="m52.8369 61.5537-.036-.151c.131-.031 13.23-3.111 23.199-.991l-.032.152c-9.934-2.113-23 .959-23.131.99"/><path d="m38.3666 61.2383c-.154-.051-15.486-5.121-24.609-3.912l-.021-.154c9.159-1.212 24.525 3.867 24.679 3.919z"/><path d="m13.7462 64.2261-.05-.147c9.318-3.203 22.253-1.783 22.382-1.768l-.017.154c-.13-.014-13.03-1.431-22.315 1.761"/><path d="m36.3499 61.618c-.138-.033-13.876-3.263-24.32-1.04l-.033-.152c10.479-2.23 24.251 1.008 24.389 1.041z"/></g></g></svg>