<svg height="90" viewBox="0 0 90 90" width="90" xmlns="http://www.w3.org/2000/svg" xmlns:xlink="http://www.w3.org/1999/xlink"><mask id="a" fill="#fff"><path d="m0 0h90v104h-90z" fill="none"/></mask><mask id="b" fill="#fff"><path d="m45 0c-24.853 0-45 20.147-45 45 0 24.853 20.147 45 45 45 24.853 0 45-20.147 45-45 0-24.853-20.147-45-45-45" fill="none"/></mask><mask id="c" fill="#fff"><path d="m45 0c-24.853 0-45 20.147-45 45 0 24.853 20.147 45 45 45 24.853 0 45-20.147 45-45 0-24.853-20.147-45-45-45z" fill="none"/></mask><mask id="d" fill="#fff"><path d="m45 0c-24.853 0-45 20.147-45 45 0 24.853 20.147 45 45 45 24.853 0 45-20.147 45-45 0-24.853-20.147-45-45-45" fill="none"/></mask><mask id="e" fill="#fff"><path d="m45 0c-24.853 0-45 20.147-45 45 0 24.853 20.147 45 45 45 24.853 0 45-20.147 45-45 0-24.853-20.147-45-45-45" fill="none"/></mask><mask id="f" fill="#fff"><path d="m45 0c-24.853 0-45 20.147-45 45 0 24.853 20.147 45 45 45 24.853 0 45-20.147 45-45 0-24.853-20.147-45-45-45" fill="none"/></mask><mask id="g" fill="#fff"><path d="m45 0c-24.853 0-45 20.147-45 45 0 24.853 20.147 45 45 45 24.853 0 45-20.147 45-45 0-24.853-20.147-45-45-45z" fill="none"/></mask><mask id="h" fill="#fff"><path d="m45 0c-24.853 0-45 20.147-45 45 0 24.853 20.147 45 45 45 24.853 0 45-20.147 45-45 0-24.853-20.147-45-45-45z" fill="none"/></mask><mask id="i" fill="#fff"><path d="m45 0c-24.853 0-45 20.147-45 45 0 24.853 20.147 45 45 45 24.853 0 45-20.147 45-45 0-24.853-20.147-45-45-45" fill="none"/></mask><mask id="j" fill="#fff"><path d="m45 0c-24.853 0-45 20.147-45 45 0 24.853 20.147 45 45 45 24.853 0 45-20.147 45-45 0-24.853-20.147-45-45-45" fill="none"/></mask><mask id="k" fill="#fff"><path d="m45 0c-24.853 0-45 20.147-45 45 0 24.853 20.147 45 45 45 24.853 0 45-20.147 45-45 0-24.853-20.147-45-45-45z" fill="none"/></mask><mask id="l" fill="#fff"><path d="m45 0c-24.853 0-45 20.147-45 45 0 24.853 20.147 45 45 45 24.853 0 45-20.147 45-45 0-24.853-20.147-45-45-45" fill="none"/></mask><mask id="m" fill="#fff"><path d="m45 0c-24.853 0-45 20.147-45 45 0 24.853 20.147 45 45 45 24.853 0 45-20.147 45-45 0-24.853-20.147-45-45-45z" fill="none"/></mask><mask id="n" fill="#fff"><path d="m45 0c-24.853 0-45 20.147-45 45 0 24.853 20.147 45 45 45 24.853 0 45-20.147 45-45 0-24.853-20.147-45-45-45" fill="none"/></mask><mask id="o" fill="#fff"><path d="m45 0c-24.853 0-45 20.147-45 45 0 24.853 20.147 45 45 45 24.853 0 45-20.147 45-45 0-24.853-20.147-45-45-45" fill="none"/></mask><mask id="p" fill="#fff"><path d="m45 0c-24.853 0-45 20.147-45 45 0 24.853 20.147 45 45 45 24.853 0 45-20.147 45-45 0-24.853-20.147-45-45-45" fill="none"/></mask><mask id="q" fill="#fff"><path d="m45 0c-24.853 0-45 20.147-45 45 0 24.853 20.147 45 45 45 24.853 0 45-20.147 45-45 0-24.853-20.147-45-45-45" fill="none"/></mask><mask id="r" fill="#fff"><path d="m45 0c-24.853 0-45 20.147-45 45 0 24.853 20.147 45 45 45 24.853 0 45-20.147 45-45 0-24.853-20.147-45-45-45" fill="none"/></mask><g fill="none" fill-rule="evenodd"><path d="m58.406 58.635h-40.493v-3.648h40.493z" fill="#83aeed" mask="url(#a)"/><path d="m54.758 54.622h-33.911v-42.561h33.911z" fill="#83aeed" mask="url(#a)"/><path d="m36.883 52.069h-12.768v-37.575h12.768z" fill="#efebe1" mask="url(#a)"/><path d="m51.915 52.024h-12.768v-37.575h12.768z" fill="#efebe1" mask="url(#a)"/><path d="m25.225 51.412h10.799v-35.898h-10.799zm11.528 1.459h-12.258c-.402 0-.729-.327-.729-.73v-37.357c0-.401.327-.729.729-.729h12.258c.404 0 .73.328.73.729v37.357c0 .403-.326.73-.73.73zm14.29-37.355h-10.642v35.896h10.799zm.887 37.355h-12.259c-.403 0-.729-.327-.729-.73v-37.357c0-.401.326-.729.729-.729h12.257c.404 0 .73.328.73.729v37.357c.001.403-.326.73-.728.73zm-29.623 1.496h31.812v-41.576h-31.812zm-3.559 3.174h38.928v-1.715h-38.928zm39.658 1.459h-40.387c-.403 0-.73-.328-.73-.73v-3.173c0-.403.327-.73.73-.73h2.828v-42.305c0-.404.328-.73.73-.73h33.271c.402 0 .73.326.73.73v42.305h2.828c.403 0 .73.327.73.73v3.173c0 .402-.327.73-.73.73z" fill="#232e38" mask="url(#a)"/><path d="m43.0318 37.1821s-.218-1.945.411-2.026c.631-.084.796 1.095.905 1.232s1.205.931 2.329.028c1.123-.905 1.341-.631 1.397-.467.053.165.109 1.068-.467 1.837 0 0-.012.369.081.779.097.412-.355 1.001-.274 1.508.084.505.822 2.232 2.74 2.998 1.917.768 4.776.732 5.651 6.319 0 0 0 2.264-.4 3.542-.402 1.279.734 1.078.984 1.132.259.055.17.202 4.843.677 4.676.475 4.128 1.206 4.055 1.643-.072.439-.768.696-6.83-.364-6.208-.804-4.732-1.152-4.768-.422-.037.732-1.26.375-1.534.361s-4.959.191-4.918-1.341c0-.809 2.207-.426 2.207-.426s-2.509-.862-1.208-1.478c-.149-.754-.52-1.233-.23-1.986.286-.753-.318-1.218-.701-.508-.382.713-.121 2.795-1.587 2.973-.672 1.849-.822 2.671-2.247 2.534-1.423-.137-.822-.959-.535-1.124.289-.163 1.055-.163 1.083-1.233.028-1.067.547-3.766.684-4.108-1.168-4.109-1.204-6.885-1.752-8.857-.713-2.099-.713-2.099.081-3.223" fill="#000" mask="url(#a)"/><path d="m65.231 31.179h10.85v5.983h-10.85z" fill="#83aeed" mask="url(#a)"/><path d="m64.0138 30.5702c0-.336.273-.606.608-.606h12.069c.335 0 .608.27.608.606v7.201c0 .336-.273.609-.608.609h-12.069c-.335 0-.608-.273-.608-.609zm6.592-2.962.502.935h-1.108zm-7.505 12.189h15.111c.335 0 .608-.27.608-.606v-10.042c0-.335-.273-.606-.608-.606h-5.723l-1.298-2.418c-.101-.19-.294-.311-.511-.321-.217-.012-.419.099-.535.277l-1.595 2.462h-5.449c-.335 0-.608.271-.608.606v10.042c0 .336.273.606.608.606z" fill="#3a3a3a" mask="url(#a)"/><path d="m27.087 88.109-3.037-14.858c-.946-4.623 2.711-8.93 7.581-8.93h26.227c4.945 0 8.618 4.432 7.543 9.104l-4.361 18.962s-32.715-1.283-32.804-1.54c-.088-.257-1.149-2.738-1.149-2.738" fill="#ff6b23" mask="url(#b)"/><path d="m27.087 88.109-3.037-14.858c-.946-4.623 2.711-8.93 7.581-8.93h26.227c4.945 0 8.618 4.432 7.543 9.104l-4.361 18.962s-32.715-1.283-32.804-1.54c-.088-.257-1.149-2.738-1.149-2.738z" mask="url(#c)" stroke="#000"/><g fill="#e13d00"><path d="m56.6617 71.396c0 .409-.332.741-.741.741s-.741-.332-.741-.741.332-.741.741-.741.741.332.741.741" mask="url(#d)"/><path d="m44.7549 71.396c0 .409-.332.741-.741.741s-.741-.332-.741-.741.332-.741.741-.741.741.332.741.741" mask="url(#e)"/><path d="m33.9897 71.396c0 .409-.332.741-.741.741s-.741-.332-.741-.741.332-.741.741-.741.741.332.741.741" mask="url(#f)"/><path d="m70.7008 76.0112s-3.1.185-5.034-.441c-.621-.201-1.29-.194-1.908.018-1.373.474-2.53 1.416-3.456 3.531-1.576 4.889-2.954 9.329-1.815 20.626h3.854c.755-5.587 1.997-10.832 4.021-15.526 2.185-.319 3.862-2.2 3.862-4.473 0-.072-.002-.144-.005-.216z" mask="url(#g)"/><path d="m25.7946 73.9129s-8.063 2.37-7.954 2.533c.109.164 1.307 1.961 1.307 1.961l3.649.653 4.683-1.579z" mask="url(#h)"/><path d="m20.4361 76.7549c.271-.042.538-.109.821-.217.348-.132.657-.331.93-.571.053-.023.106-.047.158-.071.263.078.532.095.808.052.234-.029.444-.109.631-.241.209-.101.38-.246.515-.436.154-.206.257-.431.31-.674.011-.003.022-.006.034-.009h.009c.306-.05.582-.169.825-.356.106-.106.212-.213.318-.319 1.985.361 3.539 1.903 3.856 3.842 1.535 3.4 4.296 10.183 2.705 23.275h-3.626c-.769-6.485-2.134-12.563-4.53-17.939-2.324-.328-4.108-2.265-4.108-4.605 0-.612.122-1.196.344-1.731" mask="url(#i)"/></g><path d="m24.5587 79.8946c-.362-2.223-2.351-3.923-4.75-3.923-2.656 0-4.809 2.084-4.809 4.654 0 2.34 1.785 4.276 4.108 4.604 2.396 5.377 3.762 11.455 4.531 17.939h3.625c1.592-13.092-1.169-19.875-2.705-23.274" fill="#ff6b23" mask="url(#j)"/><path d="m24.5587 79.8946c-.362-2.223-2.351-3.923-4.75-3.923-2.656 0-4.809 2.084-4.809 4.654 0 2.34 1.785 4.276 4.108 4.604 2.396 5.377 3.762 11.455 4.531 17.939h3.625c1.592-13.092-1.169-19.875-2.705-23.274z" mask="url(#k)" stroke="#000"/><path d="m64.9098 79.8196c1.307-2.832 2.669-3.848 5.068-3.848 2.655 0 4.808 2.084 4.808 4.654 0 2.34-1.784 4.276-4.108 4.604-2.395 5.377-3.761 11.455-4.53 17.939h-3.625c-1.592-13.092.851-19.95 2.387-23.349" fill="#ff6b23" mask="url(#l)"/><path d="m64.9098 79.8196c1.307-2.832 2.669-3.848 5.068-3.848 2.655 0 4.808 2.084 4.808 4.654 0 2.34-1.784 4.276-4.108 4.604-2.395 5.377-3.761 11.455-4.53 17.939h-3.625c-1.592-13.092.851-19.95 2.387-23.349z" mask="url(#m)" stroke="#000"/><path d="m64.961 88.4624-.925-.37-1.603.062-4.193-1.542-30.643.432-.863.431-1.85-.184-1.11.493s7.954 3.453 8.139 3.329c.185-.123 23.245-.74 23.614-.925.37-.185 9.434-1.726 9.434-1.726" fill="#e13d00" mask="url(#n)"/><path d="m24.6366 87.5942 11.881 2.196c1.305.218 2.631.281 3.952.188l24.292-1.434c.679-.048 1.23.522 1.135 1.174l-.403 2.782c-.071.483-.48.853-.983.887l-24.514 1.396c-1.242.084-2.489.031-3.718-.16l-11.374-1.951c-.442-.068-.793-.396-.879-.82l-.618-3.04c-.145-.711.492-1.341 1.229-1.218" fill="#e13d00" mask="url(#o)"/><path d="m71.2275 80.4005c0 .481-.39.871-.871.871-.482 0-.872-.39-.872-.871s.39-.871.872-.871c.481 0 .871.39.871.871" fill="#e13d00" mask="url(#p)"/><path d="m20.4681 80.4005c0 .481-.39.871-.871.871-.482 0-.872-.39-.872-.871s.39-.871.872-.871c.481 0 .871.39.871.871" fill="#e13d00" mask="url(#q)"/><path d="m17.8404 76.446 6.16-2.446c7.122-2.082 8 13 8 13l26.24-.387s.603-11.144 6.76-11.613" mask="url(#r)" stroke="#000"/><path d="m70 76-5-1" fill="#9dbec9"/><path d="m70 76-5-1" stroke="#000"/></g></svg>