<?xml version="1.0" encoding="UTF-8" standalone="no"?>
<svg width="90px" height="90px" viewBox="0 0 90 90" version="1.1" xmlns="http://www.w3.org/2000/svg" xmlns:xlink="http://www.w3.org/1999/xlink" xmlns:sketch="http://www.bohemiancoding.com/sketch/ns">
    <!-- Generator: Sketch 3.5.1 (25234) - http://www.bohemiancoding.com/sketch -->
    <title>kat-binnen</title>
    <desc>Created with Sketch.</desc>
    <defs>
        <path id="path-1" d="M0,0 L90,0 L90,104 L0,104 L0,0 Z"></path>
        <path id="path-3" d="M45,0 C20.147,0 0,20.147 0,45 L0,45 C0,69.853 20.147,90 45,90 L45,90 C69.853,90 90,69.853 90,45 L90,45 C90,20.147 69.853,0 45,0"></path>
        <path id="path-5" d="M45,0 C20.147,0 0,20.147 0,45 L0,45 C0,69.853 20.147,90 45,90 L45,90 C69.853,90 90,69.853 90,45 L90,45 C90,20.147 69.853,0 45,0 L45,0 Z"></path>
        <path id="path-7" d="M45,0 C20.147,0 0,20.147 0,45 L0,45 C0,69.853 20.147,90 45,90 L45,90 C69.853,90 90,69.853 90,45 L90,45 C90,20.147 69.853,0 45,0"></path>
        <path id="path-9" d="M45,0 C20.147,0 0,20.147 0,45 L0,45 C0,69.853 20.147,90 45,90 L45,90 C69.853,90 90,69.853 90,45 L90,45 C90,20.147 69.853,0 45,0"></path>
        <path id="path-11" d="M45,0 C20.147,0 0,20.147 0,45 L0,45 C0,69.853 20.147,90 45,90 L45,90 C69.853,90 90,69.853 90,45 L90,45 C90,20.147 69.853,0 45,0"></path>
        <path id="path-13" d="M45,0 C20.147,0 0,20.147 0,45 L0,45 C0,69.853 20.147,90 45,90 L45,90 C69.853,90 90,69.853 90,45 L90,45 C90,20.147 69.853,0 45,0 L45,0 Z"></path>
        <path id="path-15" d="M45,0 C20.147,0 0,20.147 0,45 L0,45 C0,69.853 20.147,90 45,90 L45,90 C69.853,90 90,69.853 90,45 L90,45 C90,20.147 69.853,0 45,0 L45,0 Z"></path>
        <path id="path-17" d="M45,0 C20.147,0 0,20.147 0,45 L0,45 C0,69.853 20.147,90 45,90 L45,90 C69.853,90 90,69.853 90,45 L90,45 C90,20.147 69.853,0 45,0"></path>
        <path id="path-19" d="M45,0 C20.147,0 0,20.147 0,45 L0,45 C0,69.853 20.147,90 45,90 L45,90 C69.853,90 90,69.853 90,45 L90,45 C90,20.147 69.853,0 45,0"></path>
        <path id="path-21" d="M45,0 C20.147,0 0,20.147 0,45 L0,45 C0,69.853 20.147,90 45,90 L45,90 C69.853,90 90,69.853 90,45 L90,45 C90,20.147 69.853,0 45,0 L45,0 Z"></path>
        <path id="path-23" d="M45,0 C20.147,0 0,20.147 0,45 L0,45 C0,69.853 20.147,90 45,90 L45,90 C69.853,90 90,69.853 90,45 L90,45 C90,20.147 69.853,0 45,0"></path>
        <path id="path-25" d="M45,0 C20.147,0 0,20.147 0,45 L0,45 C0,69.853 20.147,90 45,90 L45,90 C69.853,90 90,69.853 90,45 L90,45 C90,20.147 69.853,0 45,0 L45,0 Z"></path>
        <path id="path-27" d="M45,0 C20.147,0 0,20.147 0,45 L0,45 C0,69.853 20.147,90 45,90 L45,90 C69.853,90 90,69.853 90,45 L90,45 C90,20.147 69.853,0 45,0"></path>
        <path id="path-29" d="M45,0 C20.147,0 0,20.147 0,45 L0,45 C0,69.853 20.147,90 45,90 L45,90 C69.853,90 90,69.853 90,45 L90,45 C90,20.147 69.853,0 45,0"></path>
        <path id="path-31" d="M45,0 C20.147,0 0,20.147 0,45 L0,45 C0,69.853 20.147,90 45,90 L45,90 C69.853,90 90,69.853 90,45 L90,45 C90,20.147 69.853,0 45,0"></path>
        <path id="path-33" d="M45,0 C20.147,0 0,20.147 0,45 L0,45 C0,69.853 20.147,90 45,90 L45,90 C69.853,90 90,69.853 90,45 L90,45 C90,20.147 69.853,0 45,0"></path>
        <path id="path-35" d="M45,0 C20.147,0 0,20.147 0,45 L0,45 C0,69.853 20.147,90 45,90 L45,90 C69.853,90 90,69.853 90,45 L90,45 C90,20.147 69.853,0 45,0"></path>
    </defs>
    <g id="Page-1" stroke="none" stroke-width="1" fill="none" fill-rule="evenodd" sketch:type="MSPage">
        <g id="kat-binnen" sketch:type="MSArtboardGroup">
            <g id="Group-12" sketch:type="MSLayerGroup">
                <mask id="mask-2" sketch:name="Clip 4" fill="white">
                    <use xlink:href="#path-1"></use>
                </mask>
                <g id="Clip-4"></g>
                <path d="M58.406,58.635 L17.913,58.635 L17.913,54.987 L58.406,54.987 L58.406,58.635 Z" id="Fill-3" fill="#83AEED" sketch:type="MSShapeGroup" mask="url(#mask-2)"></path>
                <path d="M54.758,54.622 L20.847,54.622 L20.847,12.061 L54.758,12.061 L54.758,54.622 Z" id="Fill-5" fill="#83AEED" sketch:type="MSShapeGroup" mask="url(#mask-2)"></path>
                <path d="M36.883,52.069 L24.115,52.069 L24.115,14.494 L36.883,14.494 L36.883,52.069 Z" id="Fill-6" fill="#EFEBE1" sketch:type="MSShapeGroup" mask="url(#mask-2)"></path>
                <path d="M51.915,52.024 L39.147,52.024 L39.147,14.449 L51.915,14.449 L51.915,52.024 Z" id="Fill-7" fill="#EFEBE1" sketch:type="MSShapeGroup" mask="url(#mask-2)"></path>
                <path d="M25.225,51.412 L36.024,51.412 L36.024,15.514 L25.225,15.514 L25.225,51.412 Z M36.753,52.871 L24.495,52.871 C24.093,52.871 23.766,52.544 23.766,52.141 L23.766,14.784 C23.766,14.383 24.093,14.055 24.495,14.055 L36.753,14.055 C37.157,14.055 37.483,14.383 37.483,14.784 L37.483,52.141 C37.483,52.544 37.157,52.871 36.753,52.871 L36.753,52.871 Z M51.043,15.516 L40.401,15.516 L40.401,51.412 L51.2,51.412 L51.043,15.516 Z M51.93,52.871 L39.671,52.871 C39.268,52.871 38.942,52.544 38.942,52.141 L38.942,14.784 C38.942,14.383 39.268,14.055 39.671,14.055 L51.928,14.055 C52.332,14.055 52.658,14.383 52.658,14.784 L52.658,52.141 C52.659,52.544 52.332,52.871 51.93,52.871 L51.93,52.871 Z M22.307,54.367 L54.119,54.367 L54.119,12.791 L22.307,12.791 L22.307,54.367 Z M18.748,57.541 L57.676,57.541 L57.676,55.826 L18.748,55.826 L18.748,57.541 Z M58.406,59 L18.019,59 C17.616,59 17.289,58.672 17.289,58.27 L17.289,55.097 C17.289,54.694 17.616,54.367 18.019,54.367 L20.847,54.367 L20.847,12.062 C20.847,11.658 21.175,11.332 21.577,11.332 L54.848,11.332 C55.25,11.332 55.578,11.658 55.578,12.062 L55.578,54.367 L58.406,54.367 C58.809,54.367 59.136,54.694 59.136,55.097 L59.136,58.27 C59.136,58.672 58.809,59 58.406,59 L58.406,59 Z" id="Fill-8" fill="#232E38" sketch:type="MSShapeGroup" mask="url(#mask-2)"></path>
                <path d="M43.0318,37.1821 C43.0318,37.1821 42.8138,35.2371 43.4428,35.1561 C44.0738,35.0721 44.2388,36.2511 44.3478,36.3881 C44.4568,36.5251 45.5528,37.3191 46.6768,36.4161 C47.7998,35.5111 48.0178,35.7851 48.0738,35.9491 C48.1268,36.1141 48.1828,37.0171 47.6068,37.7861 C47.6068,37.7861 47.5948,38.1551 47.6878,38.5651 C47.7848,38.9771 47.3328,39.5661 47.4138,40.0731 C47.4978,40.5781 48.2358,42.3051 50.1538,43.0711 C52.0708,43.8391 54.9298,43.8031 55.8048,49.3901 C55.8048,49.3901 55.8048,51.6541 55.4048,52.9321 C55.0028,54.2111 56.1388,54.0101 56.3888,54.0641 C56.6478,54.1191 56.5588,54.2661 61.2318,54.7411 C65.9078,55.2161 65.3598,55.9471 65.2868,56.3841 C65.2148,56.8231 64.5188,57.0801 58.4568,56.0201 C52.2488,55.2161 53.7248,54.8681 53.6888,55.5981 C53.6518,56.3301 52.4288,55.9731 52.1548,55.9591 C51.8808,55.9451 47.1958,56.1501 47.2368,54.6181 C47.2368,53.8091 49.4438,54.1921 49.4438,54.1921 C49.4438,54.1921 46.9348,53.3301 48.2358,52.7141 C48.0868,51.9601 47.7158,51.4811 48.0058,50.7281 C48.2918,49.9751 47.6878,49.5101 47.3048,50.2201 C46.9228,50.9331 47.1838,53.0151 45.7178,53.1931 C45.0458,55.0421 44.8958,55.8641 43.4708,55.7271 C42.0478,55.5901 42.6488,54.7681 42.9358,54.6031 C43.2248,54.4401 43.9908,54.4401 44.0188,53.3701 C44.0468,52.3031 44.5658,49.6041 44.7028,49.2621 C43.5348,45.1531 43.4988,42.3771 42.9508,40.4051 C42.2378,38.3061 42.2378,38.3061 43.0318,37.1821" id="Fill-9" fill="#000000" sketch:type="MSShapeGroup" mask="url(#mask-2)"></path>
                <path d="M65.231,31.179 L76.081,31.179 L76.081,37.162 L65.231,37.162 L65.231,31.179 Z" id="Fill-10" fill="#83AEED" sketch:type="MSShapeGroup" mask="url(#mask-2)"></path>
                <path d="M64.0138,30.5702 C64.0138,30.2342 64.2868,29.9642 64.6218,29.9642 L76.6908,29.9642 C77.0258,29.9642 77.2988,30.2342 77.2988,30.5702 L77.2988,37.7712 C77.2988,38.1072 77.0258,38.3802 76.6908,38.3802 L64.6218,38.3802 C64.2868,38.3802 64.0138,38.1072 64.0138,37.7712 L64.0138,30.5702 Z M70.6058,27.6082 L71.1078,28.5432 L69.9998,28.5432 L70.6058,27.6082 Z M63.1008,39.7972 L78.2118,39.7972 C78.5468,39.7972 78.8198,39.5272 78.8198,39.1912 L78.8198,29.1492 C78.8198,28.8142 78.5468,28.5432 78.2118,28.5432 L72.4888,28.5432 L71.1908,26.1252 C71.0898,25.9352 70.8968,25.8142 70.6798,25.8042 C70.4628,25.7922 70.2608,25.9032 70.1448,26.0812 L68.5498,28.5432 L63.1008,28.5432 C62.7658,28.5432 62.4928,28.8142 62.4928,29.1492 L62.4928,39.1912 C62.4928,39.5272 62.7658,39.7972 63.1008,39.7972 L63.1008,39.7972 Z" id="Fill-11" fill="#3A3A3A" sketch:type="MSShapeGroup" mask="url(#mask-2)"></path>
            </g>
            <g id="Group-64" sketch:type="MSLayerGroup">
                <g id="Group-15">
                    <mask id="mask-4" sketch:name="Clip 14" fill="white">
                        <use xlink:href="#path-3"></use>
                    </mask>
                    <g id="Clip-14"></g>
                    <path d="M27.087,88.109 L24.05,73.251 C23.104,68.628 26.761,64.321 31.631,64.321 L57.858,64.321 C62.803,64.321 66.476,68.753 65.401,73.425 L61.04,92.387 C61.04,92.387 28.325,91.104 28.236,90.847 C28.148,90.59 27.087,88.109 27.087,88.109" id="Fill-13" fill="#FF6B23" sketch:type="MSShapeGroup" mask="url(#mask-4)"></path>
                </g>
                <g id="Group-18">
                    <mask id="mask-6" sketch:name="Clip 17" fill="white">
                        <use xlink:href="#path-5"></use>
                    </mask>
                    <g id="Clip-17"></g>
                    <path d="M27.087,88.109 L24.05,73.251 C23.104,68.628 26.761,64.321 31.631,64.321 L57.858,64.321 C62.803,64.321 66.476,68.753 65.401,73.425 L61.04,92.387 C61.04,92.387 28.325,91.104 28.236,90.847 C28.148,90.59 27.087,88.109 27.087,88.109 L27.087,88.109 Z" id="Stroke-16" stroke="#000000" sketch:type="MSShapeGroup" mask="url(#mask-6)"></path>
                </g>
                <g id="Group-21">
                    <mask id="mask-8" sketch:name="Clip 20" fill="white">
                        <use xlink:href="#path-7"></use>
                    </mask>
                    <g id="Clip-20"></g>
                    <path d="M56.6617,71.396 C56.6617,71.805 56.3297,72.137 55.9207,72.137 C55.5117,72.137 55.1797,71.805 55.1797,71.396 C55.1797,70.987 55.5117,70.655 55.9207,70.655 C56.3297,70.655 56.6617,70.987 56.6617,71.396" id="Fill-19" fill="#E13D00" sketch:type="MSShapeGroup" mask="url(#mask-8)"></path>
                </g>
                <g id="Group-24">
                    <mask id="mask-10" sketch:name="Clip 23" fill="white">
                        <use xlink:href="#path-9"></use>
                    </mask>
                    <g id="Clip-23"></g>
                    <path d="M44.7549,71.396 C44.7549,71.805 44.4229,72.137 44.0139,72.137 C43.6049,72.137 43.2729,71.805 43.2729,71.396 C43.2729,70.987 43.6049,70.655 44.0139,70.655 C44.4229,70.655 44.7549,70.987 44.7549,71.396" id="Fill-22" fill="#E13D00" sketch:type="MSShapeGroup" mask="url(#mask-10)"></path>
                </g>
                <g id="Group-27">
                    <mask id="mask-12" sketch:name="Clip 26" fill="white">
                        <use xlink:href="#path-11"></use>
                    </mask>
                    <g id="Clip-26"></g>
                    <path d="M33.9897,71.396 C33.9897,71.805 33.6577,72.137 33.2487,72.137 C32.8397,72.137 32.5077,71.805 32.5077,71.396 C32.5077,70.987 32.8397,70.655 33.2487,70.655 C33.6577,70.655 33.9897,70.987 33.9897,71.396" id="Fill-25" fill="#E13D00" sketch:type="MSShapeGroup" mask="url(#mask-12)"></path>
                </g>
                <g id="Group-30">
                    <mask id="mask-14" sketch:name="Clip 29" fill="white">
                        <use xlink:href="#path-13"></use>
                    </mask>
                    <g id="Clip-29"></g>
                    <path d="M70.7008,76.0112 C70.7008,76.0112 67.6008,76.1962 65.6668,75.5702 C65.0458,75.3692 64.3768,75.3762 63.7588,75.5882 C62.3858,76.0622 61.2288,77.0042 60.3028,79.1192 C58.7268,84.0082 57.3488,88.4482 58.4878,99.7452 L62.3418,99.7452 C63.0968,94.1582 64.3388,88.9132 66.3628,84.2192 C68.5478,83.9002 70.2248,82.0192 70.2248,79.7462 C70.2248,79.6742 70.2228,79.6022 70.2198,79.5302 L70.7008,76.0112 Z" id="Fill-28" fill="#E13D00" sketch:type="MSShapeGroup" mask="url(#mask-14)"></path>
                </g>
                <g id="Group-33">
                    <mask id="mask-16" sketch:name="Clip 32" fill="white">
                        <use xlink:href="#path-15"></use>
                    </mask>
                    <g id="Clip-32"></g>
                    <path d="M25.7946,73.9129 C25.7946,73.9129 17.7316,76.2829 17.8406,76.4459 C17.9496,76.6099 19.1476,78.4069 19.1476,78.4069 L22.7966,79.0599 L27.4796,77.4809 L25.7946,73.9129 Z" id="Fill-31" fill="#E13D00" sketch:type="MSShapeGroup" mask="url(#mask-16)"></path>
                </g>
                <g id="Group-36">
                    <mask id="mask-18" sketch:name="Clip 35" fill="white">
                        <use xlink:href="#path-17"></use>
                    </mask>
                    <g id="Clip-35"></g>
                    <path d="M20.4361,76.7549 C20.7071,76.7129 20.9741,76.6459 21.2571,76.5379 C21.6051,76.4059 21.9141,76.2069 22.1871,75.9669 C22.2401,75.9439 22.2931,75.9199 22.3451,75.8959 C22.6081,75.9739 22.8771,75.9909 23.1531,75.9479 C23.3871,75.9189 23.5971,75.8389 23.7841,75.7069 C23.9931,75.6059 24.1641,75.4609 24.2991,75.2709 C24.4531,75.0649 24.5561,74.8399 24.6091,74.5969 C24.6201,74.5939 24.6311,74.5909 24.6431,74.5879 L24.6521,74.5879 C24.9581,74.5379 25.2341,74.4189 25.4771,74.2319 C25.5831,74.1259 25.6891,74.0189 25.7951,73.9129 C27.7801,74.2739 29.3341,75.8159 29.6511,77.7549 C31.1861,81.1549 33.9471,87.9379 32.3561,101.0299 L28.7301,101.0299 C27.9611,94.5449 26.5961,88.4669 24.2001,83.0909 C21.8761,82.7629 20.0921,80.8259 20.0921,78.4859 C20.0921,77.8739 20.2141,77.2899 20.4361,76.7549" id="Fill-34" fill="#E13D00" sketch:type="MSShapeGroup" mask="url(#mask-18)"></path>
                </g>
                <g id="Group-39">
                    <mask id="mask-20" sketch:name="Clip 38" fill="white">
                        <use xlink:href="#path-19"></use>
                    </mask>
                    <g id="Clip-38"></g>
                    <path d="M24.5587,79.8946 C24.1967,77.6716 22.2077,75.9716 19.8087,75.9716 C17.1527,75.9716 14.9997,78.0556 14.9997,80.6256 C14.9997,82.9656 16.7847,84.9016 19.1077,85.2296 C21.5037,90.6066 22.8697,96.6846 23.6387,103.1686 L27.2637,103.1686 C28.8557,90.0766 26.0947,83.2936 24.5587,79.8946" id="Fill-37" fill="#FF6B23" sketch:type="MSShapeGroup" mask="url(#mask-20)"></path>
                </g>
                <g id="Group-42">
                    <mask id="mask-22" sketch:name="Clip 41" fill="white">
                        <use xlink:href="#path-21"></use>
                    </mask>
                    <g id="Clip-41"></g>
                    <path d="M24.5587,79.8946 C24.1967,77.6716 22.2077,75.9716 19.8087,75.9716 C17.1527,75.9716 14.9997,78.0556 14.9997,80.6256 C14.9997,82.9656 16.7847,84.9016 19.1077,85.2296 C21.5037,90.6066 22.8697,96.6846 23.6387,103.1686 L27.2637,103.1686 C28.8557,90.0766 26.0947,83.2936 24.5587,79.8946 L24.5587,79.8946 Z" id="Stroke-40" stroke="#000000" sketch:type="MSShapeGroup" mask="url(#mask-22)"></path>
                </g>
                <g id="Group-45">
                    <mask id="mask-24" sketch:name="Clip 44" fill="white">
                        <use xlink:href="#path-23"></use>
                    </mask>
                    <g id="Clip-44"></g>
                    <path d="M64.9098,79.8196 C66.2168,76.9876 67.5788,75.9716 69.9778,75.9716 C72.6328,75.9716 74.7858,78.0556 74.7858,80.6256 C74.7858,82.9656 73.0018,84.9016 70.6778,85.2296 C68.2828,90.6066 66.9168,96.6846 66.1478,103.1686 L62.5228,103.1686 C60.9308,90.0766 63.3738,83.2186 64.9098,79.8196" id="Fill-43" fill="#FF6B23" sketch:type="MSShapeGroup" mask="url(#mask-24)"></path>
                </g>
                <g id="Group-48">
                    <mask id="mask-26" sketch:name="Clip 47" fill="white">
                        <use xlink:href="#path-25"></use>
                    </mask>
                    <g id="Clip-47"></g>
                    <path d="M64.9098,79.8196 C66.2168,76.9876 67.5788,75.9716 69.9778,75.9716 C72.6328,75.9716 74.7858,78.0556 74.7858,80.6256 C74.7858,82.9656 73.0018,84.9016 70.6778,85.2296 C68.2828,90.6066 66.9168,96.6846 66.1478,103.1686 L62.5228,103.1686 C60.9308,90.0766 63.3738,83.2186 64.9098,79.8196 L64.9098,79.8196 Z" id="Stroke-46" stroke="#000000" sketch:type="MSShapeGroup" mask="url(#mask-26)"></path>
                </g>
                <g id="Group-51">
                    <mask id="mask-28" sketch:name="Clip 50" fill="white">
                        <use xlink:href="#path-27"></use>
                    </mask>
                    <g id="Clip-50"></g>
                    <path d="M64.961,88.4624 L64.036,88.0924 L62.433,88.1544 L58.24,86.6124 L27.597,87.0444 L26.734,87.4754 L24.884,87.2914 L23.774,87.7844 C23.774,87.7844 31.728,91.2374 31.913,91.1134 C32.098,90.9904 55.158,90.3734 55.527,90.1884 C55.897,90.0034 64.961,88.4624 64.961,88.4624" id="Fill-49" fill="#E13D00" sketch:type="MSShapeGroup" mask="url(#mask-28)"></path>
                </g>
                <g id="Group-54">
                    <mask id="mask-30" sketch:name="Clip 53" fill="white">
                        <use xlink:href="#path-29"></use>
                    </mask>
                    <g id="Clip-53"></g>
                    <path d="M24.6366,87.5942 L36.5176,89.7902 C37.8226,90.0082 39.1486,90.0712 40.4696,89.9782 L64.7616,88.5442 C65.4406,88.4962 65.9916,89.0662 65.8966,89.7182 L65.4936,92.5002 C65.4226,92.9832 65.0136,93.3532 64.5106,93.3872 L39.9966,94.7832 C38.7546,94.8672 37.5076,94.8142 36.2786,94.6232 L24.9046,92.6722 C24.4626,92.6042 24.1116,92.2762 24.0256,91.8522 L23.4076,88.8122 C23.2626,88.1012 23.8996,87.4712 24.6366,87.5942" id="Fill-52" fill="#E13D00" sketch:type="MSShapeGroup" mask="url(#mask-30)"></path>
                </g>
                <g id="Group-57">
                    <mask id="mask-32" sketch:name="Clip 56" fill="white">
                        <use xlink:href="#path-31"></use>
                    </mask>
                    <g id="Clip-56"></g>
                    <path d="M71.2275,80.4005 C71.2275,80.8815 70.8375,81.2715 70.3565,81.2715 C69.8745,81.2715 69.4845,80.8815 69.4845,80.4005 C69.4845,79.9195 69.8745,79.5295 70.3565,79.5295 C70.8375,79.5295 71.2275,79.9195 71.2275,80.4005" id="Fill-55" fill="#E13D00" sketch:type="MSShapeGroup" mask="url(#mask-32)"></path>
                </g>
                <g id="Group-60">
                    <mask id="mask-34" sketch:name="Clip 59" fill="white">
                        <use xlink:href="#path-33"></use>
                    </mask>
                    <g id="Clip-59"></g>
                    <path d="M20.4681,80.4005 C20.4681,80.8815 20.0781,81.2715 19.5971,81.2715 C19.1151,81.2715 18.7251,80.8815 18.7251,80.4005 C18.7251,79.9195 19.1151,79.5295 19.5971,79.5295 C20.0781,79.5295 20.4681,79.9195 20.4681,80.4005" id="Fill-58" fill="#E13D00" sketch:type="MSShapeGroup" mask="url(#mask-34)"></path>
                </g>
                <g id="Group-63">
                    <mask id="mask-36" sketch:name="Clip 62" fill="white">
                        <use xlink:href="#path-35"></use>
                    </mask>
                    <g id="Clip-62"></g>
                    <path d="M17.8404,76.446 L24.0004,74 C31.1224,71.918 32.0004,87 32.0004,87 L58.2404,86.613 C58.2404,86.613 58.8434,75.469 65.0004,75" id="Stroke-61" stroke="#000000" sketch:type="MSShapeGroup" mask="url(#mask-36)"></path>
                </g>
            </g>
            <g id="Group-68" sketch:type="MSLayerGroup">
                <path d="M70,76 L65,75" id="Fill-65" fill="#9DBEC9" sketch:type="MSShapeGroup"></path>
                <path d="M70,76 L65,75" id="Stroke-67" stroke="#000000" sketch:type="MSShapeGroup"></path>
            </g>
        </g>
    </g>
</svg>