<?xml version="1.0" encoding="UTF-8" standalone="no"?>
<svg width="90px" height="90px" viewBox="0 0 90 90" version="1.1" xmlns="http://www.w3.org/2000/svg" xmlns:xlink="http://www.w3.org/1999/xlink" xmlns:sketch="http://www.bohemiancoding.com/sketch/ns">
    <!-- Generator: Sketch 3.5.1 (25234) - http://www.bohemiancoding.com/sketch -->
    <title>kat-binnen</title>
    <desc>Created with Sketch.</desc>
    <defs>
        <path id="path-1" d="M0,0 L90,0 L90,90 L0,90 L0,0 Z"></path>
    </defs>
    <g id="Page-1" stroke="none" stroke-width="1" fill="none" fill-rule="evenodd" sketch:type="MSPage">
        <g id="kat-binnen" sketch:type="MSArtboardGroup">
            <mask id="mask-2" sketch:name="Clip 4" fill="white">
                <use xlink:href="#path-1"></use>
            </mask>
            <g id="Clip-4"></g>
            <path d="M68.444,71.582 L22.005,71.582 L22.005,67.398 L68.444,67.398 L68.444,71.582 Z" id="Fill-3" fill="#83AEED" sketch:type="MSShapeGroup" mask="url(#mask-2)"></path>
            <path d="M64.261,66.98 L25.37,66.98 L25.37,18.169 L64.261,18.169 L64.261,66.98 Z" id="Fill-5" fill="#83AEED" sketch:type="MSShapeGroup" mask="url(#mask-2)"></path>
            <path d="M43.76,64.051 L29.117,64.051 L29.117,20.959 L43.76,20.959 L43.76,64.051 Z" id="Fill-6" fill="#EFEBE1" sketch:type="MSShapeGroup" mask="url(#mask-2)"></path>
            <path d="M61,64 L46.357,64 L46.357,20.908 L61,20.908 L61,64 Z" id="Fill-7" fill="#EFEBE1" sketch:type="MSShapeGroup" mask="url(#mask-2)"></path>
            <path d="M30.39,63.297 L42.774,63.297 L42.774,22.128 L30.39,22.128 L30.39,63.297 Z M43.611,64.971 L29.554,64.971 C29.093,64.971 28.717,64.596 28.717,64.134 L28.717,21.291 C28.717,20.831 29.093,20.455 29.554,20.455 L43.611,20.455 C44.074,20.455 44.448,20.831 44.448,21.291 L44.448,64.134 C44.448,64.596 44.074,64.971 43.611,64.971 L43.611,64.971 Z M60,22.13 L47.795,22.13 L47.795,63.297 L60.18,63.297 L60,22.13 Z M61.016,64.971 L46.958,64.971 C46.496,64.971 46.122,64.596 46.122,64.134 L46.122,21.291 C46.122,20.831 46.496,20.455 46.958,20.455 L61.015,20.455 C61.478,20.455 61.852,20.831 61.852,21.291 L61.852,64.134 C61.853,64.596 61.478,64.971 61.016,64.971 L61.016,64.971 Z M27.043,66.687 L63.526,66.687 L63.526,19.006 L27.043,19.006 L27.043,66.687 Z M22.962,70.327 L67.607,70.327 L67.607,68.361 L22.962,68.361 L22.962,70.327 Z M68.444,72 L22.126,72 C21.663,72 21.289,71.624 21.289,71.163 L21.289,67.523 C21.289,67.061 21.663,66.687 22.126,66.687 L25.37,66.687 L25.37,18.169 C25.37,17.706 25.746,17.332 26.207,17.332 L64.363,17.332 C64.825,17.332 65.2,17.706 65.2,18.169 L65.2,66.687 L68.444,66.687 C68.907,66.687 69.281,67.061 69.281,67.523 L69.281,71.163 C69.281,71.624 68.907,72 68.444,72 L68.444,72 Z" id="Fill-8" fill="#232E38" sketch:type="MSShapeGroup" mask="url(#mask-2)"></path>
            <path d="M51.4763,45.9781 C51.4763,45.9781 51.2263,43.7471 51.9473,43.6541 C52.6723,43.5591 52.8613,44.9111 52.9863,45.0681 C53.1113,45.2251 54.3673,46.1351 55.6563,45.1001 C56.9443,44.0611 57.1943,44.3751 57.2593,44.5641 C57.3193,44.7541 57.3843,45.7891 56.7233,46.6701 C56.7233,46.6701 56.7093,47.0941 56.8163,47.5641 C56.9273,48.0371 56.4093,48.7121 56.5023,49.2931 C56.5983,49.8731 57.4443,51.8531 59.6433,52.7321 C61.8423,53.6131 65.1213,53.5711 66.1253,59.9791 C66.1253,59.9791 66.1253,62.5751 65.6663,64.0401 C65.2053,65.5081 66.5083,65.2771 66.7953,65.3391 C67.0923,65.4021 66.9893,65.5701 72.3493,66.1151 C77.7113,66.6601 77.0833,67.4991 77.0003,68.0001 C76.9163,68.5031 76.1183,68.7981 69.1663,67.5831 C62.0463,66.6601 63.7403,66.2611 63.6983,67.0981 C63.6563,67.9381 62.2533,67.5281 61.9383,67.5131 C61.6243,67.4961 56.2523,67.7311 56.2993,65.9741 C56.2993,65.0471 58.8293,65.4861 58.8293,65.4861 C58.8293,65.4861 55.9523,64.4971 57.4443,63.7901 C57.2733,62.9271 56.8483,62.3771 57.1803,61.5131 C57.5093,60.6491 56.8163,60.1161 56.3773,60.9311 C55.9383,61.7491 56.2383,64.1361 54.5563,64.3401 C53.7853,66.4601 53.6143,67.4031 51.9793,67.2461 C50.3483,67.0891 51.0373,66.1461 51.3663,65.9571 C51.6973,65.7711 52.5753,65.7711 52.6083,64.5441 C52.6403,63.3191 53.2363,60.2241 53.3933,59.8321 C52.0533,55.1201 52.0113,51.9361 51.3833,49.6741 C50.5663,47.2671 50.5663,47.2671 51.4763,45.9781" id="Fill-9" fill="#000000" sketch:type="MSShapeGroup" mask="url(#mask-2)"></path>
        </g>
    </g>
</svg>