<?xml version="1.0" encoding="UTF-8" standalone="no"?>
<svg width="90px" height="90px" viewBox="0 0 90 90" version="1.1" xmlns="http://www.w3.org/2000/svg" xmlns:xlink="http://www.w3.org/1999/xlink" xmlns:sketch="http://www.bohemiancoding.com/sketch/ns">
    <!-- Generator: Sketch 3.5.1 (25234) - http://www.bohemiancoding.com/sketch -->
    <title>klok</title>
    <desc>Created with Sketch.</desc>
    <defs></defs>
    <g id="Page-1" stroke="none" stroke-width="1" fill="none" fill-rule="evenodd" sketch:type="MSPage">
        <g id="klok" sketch:type="MSArtboardGroup">
            <path d="M51.0002,19.9999 C51.0002,23.3139 48.3142,25.9999 45.0002,25.9999 C41.6862,25.9999 39.0002,23.3139 39.0002,19.9999 C39.0002,16.6859 41.6862,13.9999 45.0002,13.9999 C48.3142,13.9999 51.0002,16.6859 51.0002,19.9999 L51.0002,19.9999 Z" id="Stroke-3" stroke="#232E38" stroke-width="2" stroke-linecap="round" stroke-linejoin="round" sketch:type="MSShapeGroup"></path>
            <path d="M44.0002,20.9999 L46.0002,20.9999 L46.0002,25.9999 L44.0002,25.9999 L44.0002,20.9999 Z" id="Stroke-5" stroke="#232E38" stroke-width="2" stroke-linecap="round" stroke-linejoin="round" sketch:type="MSShapeGroup"></path>
            <path d="M68.0002,48.9999 C68.0002,61.7019 57.7022,71.9999 45.0002,71.9999 C32.2972,71.9999 22.0002,61.7019 22.0002,48.9999 C22.0002,36.2979 32.2972,25.9999 45.0002,25.9999 C57.7022,25.9999 68.0002,36.2979 68.0002,48.9999" id="Fill-7" fill="#ABCFD3" sketch:type="MSShapeGroup"></path>
            <path d="M68.0002,48.9999 C68.0002,61.7019 57.7022,71.9999 45.0002,71.9999 C32.2972,71.9999 22.0002,61.7019 22.0002,48.9999 C22.0002,36.2979 32.2972,25.9999 45.0002,25.9999 C57.7022,25.9999 68.0002,36.2979 68.0002,48.9999 L68.0002,48.9999 Z" id="Stroke-8" stroke="#232E38" stroke-width="2" stroke-linecap="round" stroke-linejoin="round" sketch:type="MSShapeGroup"></path>
            <path d="M64.0002,48.9999 C64.0002,59.4929 55.4932,67.9999 45.0002,67.9999 C34.5072,67.9999 26.0002,59.4929 26.0002,48.9999 C26.0002,38.5069 34.5072,29.9999 45.0002,29.9999 C55.4932,29.9999 64.0002,38.5069 64.0002,48.9999" id="Fill-10" fill="#FEFEFE" sketch:type="MSShapeGroup"></path>
            <path d="M64.0002,48.9999 C64.0002,59.4929 55.4932,67.9999 45.0002,67.9999 C34.5072,67.9999 26.0002,59.4929 26.0002,48.9999 C26.0002,38.5069 34.5072,29.9999 45.0002,29.9999 C55.4932,29.9999 64.0002,38.5069 64.0002,48.9999 L64.0002,48.9999 Z" id="Stroke-11" stroke="#232E38" stroke-width="2" stroke-linecap="round" stroke-linejoin="round" sketch:type="MSShapeGroup"></path>
            <path d="M47.0002,49.9999 C47.0002,51.1049 46.1052,51.9999 45.0002,51.9999 C43.8952,51.9999 43.0002,51.1049 43.0002,49.9999 C43.0002,48.8949 43.8952,47.9999 45.0002,47.9999 C46.1052,47.9999 47.0002,48.8949 47.0002,49.9999 L47.0002,49.9999 Z" id="Stroke-12" stroke="#212221" stroke-width="2" stroke-linecap="round" stroke-linejoin="round" sketch:type="MSShapeGroup"></path>
            <path d="M45.0002,37.9999 L45.0002,53.9999" id="Stroke-13" stroke="#212221" stroke-width="2" stroke-linecap="round" stroke-linejoin="round" sketch:type="MSShapeGroup"></path>
            <path d="M50.884,44.922 L41.616,52.578" id="Stroke-14" stroke="#212221" stroke-width="2" stroke-linecap="round" stroke-linejoin="round" sketch:type="MSShapeGroup"></path>
            <path d="M46.0002,33.9999 C46.0002,34.5519 45.5522,34.9999 45.0002,34.9999 C44.4482,34.9999 44.0002,34.5519 44.0002,33.9999 C44.0002,33.4479 44.4482,32.9999 45.0002,32.9999 C45.5522,32.9999 46.0002,33.4479 46.0002,33.9999" id="Fill-15" fill="#212221" sketch:type="MSShapeGroup"></path>
            <path d="M53.5002,36.0095 C53.5002,36.5615 53.0522,37.0095 52.5002,37.0095 C51.9482,37.0095 51.5002,36.5615 51.5002,36.0095 C51.5002,35.4575 51.9482,35.0095 52.5002,35.0095 C53.0522,35.0095 53.5002,35.4575 53.5002,36.0095" id="Fill-16" fill="#212221" sketch:type="MSShapeGroup"></path>
            <path d="M58.9906,41.4999 C58.9906,42.0519 58.5426,42.4999 57.9906,42.4999 C57.4386,42.4999 56.9906,42.0519 56.9906,41.4999 C56.9906,40.9479 57.4386,40.4999 57.9906,40.4999 C58.5426,40.4999 58.9906,40.9479 58.9906,41.4999" id="Fill-17" fill="#212221" sketch:type="MSShapeGroup"></path>
            <path d="M61.0002,48.9999 C61.0002,49.5519 60.5522,49.9999 60.0002,49.9999 C59.4482,49.9999 59.0002,49.5519 59.0002,48.9999 C59.0002,48.4479 59.4482,47.9999 60.0002,47.9999 C60.5522,47.9999 61.0002,48.4479 61.0002,48.9999" id="Fill-18" fill="#212221" sketch:type="MSShapeGroup"></path>
            <path d="M58.9906,56.4999 C58.9906,57.0519 58.5426,57.4999 57.9906,57.4999 C57.4386,57.4999 56.9906,57.0519 56.9906,56.4999 C56.9906,55.9479 57.4386,55.4999 57.9906,55.4999 C58.5426,55.4999 58.9906,55.9479 58.9906,56.4999" id="Fill-19" fill="#212221" sketch:type="MSShapeGroup"></path>
            <path d="M53.5002,61.9903 C53.5002,62.5423 53.0522,62.9903 52.5002,62.9903 C51.9482,62.9903 51.5002,62.5423 51.5002,61.9903 C51.5002,61.4383 51.9482,60.9903 52.5002,60.9903 C53.0522,60.9903 53.5002,61.4383 53.5002,61.9903" id="Fill-20" fill="#212221" sketch:type="MSShapeGroup"></path>
            <path d="M46.0002,63.9999 C46.0002,64.5519 45.5522,64.9999 45.0002,64.9999 C44.4482,64.9999 44.0002,64.5519 44.0002,63.9999 C44.0002,63.4479 44.4482,62.9999 45.0002,62.9999 C45.5522,62.9999 46.0002,63.4479 46.0002,63.9999" id="Fill-21" fill="#212221" sketch:type="MSShapeGroup"></path>
            <path d="M38.5002,61.9903 C38.5002,62.5423 38.0522,62.9903 37.5002,62.9903 C36.9482,62.9903 36.5002,62.5423 36.5002,61.9903 C36.5002,61.4383 36.9482,60.9903 37.5002,60.9903 C38.0522,60.9903 38.5002,61.4383 38.5002,61.9903" id="Fill-22" fill="#212221" sketch:type="MSShapeGroup"></path>
            <path d="M33.0098,56.4999 C33.0098,57.0519 32.5618,57.4999 32.0098,57.4999 C31.4578,57.4999 31.0098,57.0519 31.0098,56.4999 C31.0098,55.9479 31.4578,55.4999 32.0098,55.4999 C32.5618,55.4999 33.0098,55.9479 33.0098,56.4999" id="Fill-23" fill="#212221" sketch:type="MSShapeGroup"></path>
            <path d="M31.0002,48.9999 C31.0002,49.5519 30.5522,49.9999 30.0002,49.9999 C29.4482,49.9999 29.0002,49.5519 29.0002,48.9999 C29.0002,48.4479 29.4482,47.9999 30.0002,47.9999 C30.5522,47.9999 31.0002,48.4479 31.0002,48.9999" id="Fill-24" fill="#212221" sketch:type="MSShapeGroup"></path>
            <path d="M33.0098,41.4999 C33.0098,42.0519 32.5618,42.4999 32.0098,42.4999 C31.4578,42.4999 31.0098,42.0519 31.0098,41.4999 C31.0098,40.9479 31.4578,40.4999 32.0098,40.4999 C32.5618,40.4999 33.0098,40.9479 33.0098,41.4999" id="Fill-25" fill="#212221" sketch:type="MSShapeGroup"></path>
            <path d="M38.5002,36.0095 C38.5002,36.5615 38.0522,37.0095 37.5002,37.0095 C36.9482,37.0095 36.5002,36.5615 36.5002,36.0095 C36.5002,35.4575 36.9482,35.0095 37.5002,35.0095 C38.0522,35.0095 38.5002,35.4575 38.5002,36.0095" id="Fill-26" fill="#212221" sketch:type="MSShapeGroup"></path>
        </g>
    </g>
</svg>