<svg height="90" viewBox="0 0 90 90" width="90" xmlns="http://www.w3.org/2000/svg"><g fill="none" fill-rule="evenodd"><path d="m52 66.0296v5.5c0 3.866-3.134 7-7 7s-7-3.134-7-7v-5.5" fill="#a6acb2"/><path d="m52 66.0296v5.5c0 3.866-3.134 7-7 7s-7-3.134-7-7v-5.5" stroke="#232e38" stroke-linecap="round" stroke-linejoin="round" stroke-width="2"/><path d="m49.6667 66.5296h-9.333c-2.394 0-4.334-1.94-4.334-4.333v-3.667h18v3.667c0 2.393-1.94 4.333-4.333 4.333" fill="#a6acb2"/><path d="m49.6667 66.5296h-9.333c-2.394 0-4.334-1.94-4.334-4.333v-3.667h18v3.667c0 2.393-1.94 4.333-4.333 4.333z" stroke="#232e38" stroke-linecap="round" stroke-linejoin="round" stroke-width="2"/><path d="m63 38.5296c0-10.618-9.193-19.088-20.053-17.886-8.476.938-15.228 7.944-15.891 16.446-.473 6.072 2.076 11.559 6.296 15.143 1.73 1.47 2.648 3.684 2.648 5.954v.343h18v-.504c0-2.197.909-4.328 2.59-5.744 3.917-3.298 6.41-8.23 6.41-13.752" fill="#d1d1d1"/><g stroke-linecap="round" stroke-linejoin="round" stroke-width="2"><path d="m63 38.5296c0-10.618-9.193-19.088-20.053-17.886-8.476.938-15.228 7.944-15.891 16.446-.473 6.072 2.076 11.559 6.296 15.143 1.73 1.47 2.648 3.684 2.648 5.954v.343h18v-.504c0-2.197.909-4.328 2.59-5.744 3.917-3.298 6.41-8.23 6.41-13.752z" stroke="#383128"/><path d="m38.9 74.5296h12.3" stroke="#232e38"/><path d="m38.1 70.5296h13.9" stroke="#232e38"/><path d="m56.7 44.5296c-1.45 3.038-3.605 4.089-4.867 5.975" stroke="#fff"/><path d="m34.3289 30.119c2.504-3.249 6.435-5.342 10.854-5.342" stroke="#fff"/><path d="m31.6076 36.647c.154-1.156.452-2.266.876-3.312" stroke="#fff"/></g></g></svg>