<?xml version="1.0" encoding="UTF-8" standalone="no"?>
<svg width="90px" height="90px" viewBox="0 0 90 90" version="1.1" xmlns="http://www.w3.org/2000/svg" xmlns:xlink="http://www.w3.org/1999/xlink" xmlns:sketch="http://www.bohemiancoding.com/sketch/ns">
    <!-- Generator: Sketch 3.5.1 (25234) - http://www.bohemiancoding.com/sketch -->
    <title>lamp-aan</title>
    <desc>Created with Sketch.</desc>
    <defs></defs>
    <g id="Page-1" stroke="none" stroke-width="1" fill="none" fill-rule="evenodd" sketch:type="MSPage">
        <g id="lamp-aan" sketch:type="MSArtboardGroup">
            <g id="Group-6" sketch:type="MSLayerGroup">
                <path d="M52,66.0296 L52,71.5296 C52,75.3956 48.866,78.5296 45,78.5296 C41.134,78.5296 38,75.3956 38,71.5296 L38,66.0296" id="Fill-3" fill="#A6ACB2" sketch:type="MSShapeGroup"></path>
                <path d="M52,66.0296 L52,71.5296 C52,75.3956 48.866,78.5296 45,78.5296 C41.134,78.5296 38,75.3956 38,71.5296 L38,66.0296" id="Stroke-5" stroke="#232E38" stroke-width="2" stroke-linecap="round" stroke-linejoin="round" sketch:type="MSShapeGroup"></path>
            </g>
            <path d="M49.6667,66.5296 L40.3337,66.5296 C37.9397,66.5296 35.9997,64.5896 35.9997,62.1966 L35.9997,58.5296 L53.9997,58.5296 L53.9997,62.1966 C53.9997,64.5896 52.0597,66.5296 49.6667,66.5296" id="Fill-7" fill="#A6ACB2" sketch:type="MSShapeGroup"></path>
            <path d="M49.6667,66.5296 L40.3337,66.5296 C37.9397,66.5296 35.9997,64.5896 35.9997,62.1966 L35.9997,58.5296 L53.9997,58.5296 L53.9997,62.1966 C53.9997,64.5896 52.0597,66.5296 49.6667,66.5296 L49.6667,66.5296 Z" id="Stroke-9" stroke="#232E38" stroke-width="2" stroke-linecap="round" stroke-linejoin="round" sketch:type="MSShapeGroup"></path>
            <path d="M63,38.5296 C63,27.9116 53.807,19.4416 42.947,20.6436 C34.471,21.5816 27.719,28.5876 27.056,37.0896 C26.583,43.1616 29.132,48.6486 33.352,52.2326 C35.082,53.7026 36,55.9166 36,58.1866 L36,58.5296 L54,58.5296 L54,58.0256 C54,55.8286 54.909,53.6976 56.59,52.2816 C60.507,48.9836 63,44.0516 63,38.5296" id="Fill-11" fill="#FFCC00" sketch:type="MSShapeGroup"></path>
            <path d="M63,38.5296 C63,27.9116 53.807,19.4416 42.947,20.6436 C34.471,21.5816 27.719,28.5876 27.056,37.0896 C26.583,43.1616 29.132,48.6486 33.352,52.2326 C35.082,53.7026 36,55.9166 36,58.1866 L36,58.5296 L54,58.5296 L54,58.0256 C54,55.8286 54.909,53.6976 56.59,52.2816 C60.507,48.9836 63,44.0516 63,38.5296 L63,38.5296 Z" id="Stroke-13" stroke="#383128" stroke-width="2" stroke-linecap="round" stroke-linejoin="round" sketch:type="MSShapeGroup"></path>
            <path d="M38.9,74.5296 L51.2,74.5296" id="Stroke-15" stroke="#232E38" stroke-width="2" stroke-linecap="round" stroke-linejoin="round" sketch:type="MSShapeGroup"></path>
            <path d="M38.1,70.5296 L52,70.5296" id="Stroke-17" stroke="#232E38" stroke-width="2" stroke-linecap="round" stroke-linejoin="round" sketch:type="MSShapeGroup"></path>
            <path d="M56.7,44.5296 C55.25,47.5676 53.095,48.6186 51.833,50.5046" id="Stroke-19" stroke="#FFFFFF" stroke-width="2" stroke-linecap="round" stroke-linejoin="round" sketch:type="MSShapeGroup"></path>
            <path d="M34.3289,30.119 C36.8329,26.87 40.7639,24.777 45.1829,24.777" id="Stroke-21" stroke="#FFFFFF" stroke-width="2" stroke-linecap="round" stroke-linejoin="round" sketch:type="MSShapeGroup"></path>
            <path d="M31.6076,36.647 C31.7616,35.491 32.0596,34.381 32.4836,33.335" id="Stroke-23" stroke="#FFFFFF" stroke-width="2" stroke-linecap="round" stroke-linejoin="round" sketch:type="MSShapeGroup"></path>
            <path d="M30.2375,56.5296 L28.9995,57.2146" id="Stroke-25" stroke="#FFFFFF" stroke-width="2" stroke-linecap="round" stroke-linejoin="round" sketch:type="MSShapeGroup"></path>
            <path d="M28.3593,52.5296 L25.0003,53.6316" id="Stroke-27" stroke="#FFFFFF" stroke-width="2" stroke-linecap="round" stroke-linejoin="round" sketch:type="MSShapeGroup"></path>
            <path d="M25,48.5296 L23.586,48.4906" id="Stroke-29" stroke="#FFFFFF" stroke-width="2" stroke-linecap="round" stroke-linejoin="round" sketch:type="MSShapeGroup"></path>
            <path d="M24.5342,44.6271 L21.0002,44.5291" id="Stroke-31" stroke="#FFFFFF" stroke-width="2" stroke-linecap="round" stroke-linejoin="round" sketch:type="MSShapeGroup"></path>
            <path d="M23.4137,40.5686 L21.9997,40.5296" id="Stroke-33" stroke="#FFFFFF" stroke-width="2" stroke-linecap="round" stroke-linejoin="round" sketch:type="MSShapeGroup"></path>
            <path d="M23.5342,36.5296 L20.0002,36.4316" id="Stroke-35" stroke="#FFFFFF" stroke-width="2" stroke-linecap="round" stroke-linejoin="round" sketch:type="MSShapeGroup"></path>
            <path d="M25.0404,29.334 L22.0004,27.53" id="Stroke-37" stroke="#FFFFFF" stroke-width="2" stroke-linecap="round" stroke-linejoin="round" sketch:type="MSShapeGroup"></path>
            <path d="M30,23.0434 L27.514,20.5294" id="Stroke-39" stroke="#FFFFFF" stroke-width="2" stroke-linecap="round" stroke-linejoin="round" sketch:type="MSShapeGroup"></path>
            <path d="M37,18.6884 L35.412,15.5294" id="Stroke-41" stroke="#FFFFFF" stroke-width="2" stroke-linecap="round" stroke-linejoin="round" sketch:type="MSShapeGroup"></path>
            <path d="M44.1357,16.5355 L44.1537,13.0005" id="Stroke-43" stroke="#FFFFFF" stroke-width="2" stroke-linecap="round" stroke-linejoin="round" sketch:type="MSShapeGroup"></path>
            <path d="M63.9596,28.5296 L66.9996,26.7256" id="Stroke-45" stroke="#FFFFFF" stroke-width="2" stroke-linecap="round" stroke-linejoin="round" sketch:type="MSShapeGroup"></path>
            <path d="M58.3586,21.9599 L60.6816,19.2949" id="Stroke-47" stroke="#FFFFFF" stroke-width="2" stroke-linecap="round" stroke-linejoin="round" sketch:type="MSShapeGroup"></path>
            <path d="M51.1748,17.5575 L52.9998,14.5295" id="Stroke-49" stroke="#FFFFFF" stroke-width="2" stroke-linecap="round" stroke-linejoin="round" sketch:type="MSShapeGroup"></path>
            <path d="M60.5589,56.7346 L59.2799,56.1316" id="Stroke-51" stroke="#FFFFFF" stroke-width="2" stroke-linecap="round" stroke-linejoin="round" sketch:type="MSShapeGroup"></path>
            <path d="M65.1269,53.5296 L61.9999,51.8796" id="Stroke-53" stroke="#FFFFFF" stroke-width="2" stroke-linecap="round" stroke-linejoin="round" sketch:type="MSShapeGroup"></path>
            <path d="M66,48.5686 L64.586,48.5296" id="Stroke-55" stroke="#FFFFFF" stroke-width="2" stroke-linecap="round" stroke-linejoin="round" sketch:type="MSShapeGroup"></path>
            <path d="M69,44.5296 L65.466,44.4316" id="Stroke-57" stroke="#FFFFFF" stroke-width="2" stroke-linecap="round" stroke-linejoin="round" sketch:type="MSShapeGroup"></path>
            <path d="M68,40.5296 L66.586,40.4906" id="Stroke-59" stroke="#FFFFFF" stroke-width="2" stroke-linecap="round" stroke-linejoin="round" sketch:type="MSShapeGroup"></path>
            <path d="M67.3442,32.09 L66.0002,32.53" id="Stroke-61" stroke="#FFFFFF" stroke-width="2" stroke-linecap="round" stroke-linejoin="round" sketch:type="MSShapeGroup"></path>
            <path d="M62.9737,23.6147 L61.9107,24.5477" id="Stroke-63" stroke="#FFFFFF" stroke-width="2" stroke-linecap="round" stroke-linejoin="round" sketch:type="MSShapeGroup"></path>
            <path d="M55.9109,18.4444 L55.0259,19.5474" id="Stroke-65" stroke="#FFFFFF" stroke-width="2" stroke-linecap="round" stroke-linejoin="round" sketch:type="MSShapeGroup"></path>
            <path d="M48.0918,15.1183 L47.9998,16.5293" id="Stroke-67" stroke="#FFFFFF" stroke-width="2" stroke-linecap="round" stroke-linejoin="round" sketch:type="MSShapeGroup"></path>
            <path d="M22.6558,32.09 L23.9998,32.53" id="Stroke-69" stroke="#FFFFFF" stroke-width="2" stroke-linecap="round" stroke-linejoin="round" sketch:type="MSShapeGroup"></path>
            <path d="M26.1294,24.6546 L27.2144,25.5616" id="Stroke-71" stroke="#FFFFFF" stroke-width="2" stroke-linecap="round" stroke-linejoin="round" sketch:type="MSShapeGroup"></path>
            <path d="M32.1358,19.4979 L32.9498,20.6549" id="Stroke-73" stroke="#FFFFFF" stroke-width="2" stroke-linecap="round" stroke-linejoin="round" sketch:type="MSShapeGroup"></path>
            <path d="M40.8574,15.5296 L41.0004,16.9366" id="Stroke-75" stroke="#FFFFFF" stroke-width="2" stroke-linecap="round" stroke-linejoin="round" sketch:type="MSShapeGroup"></path>
            <path d="M70.5342,36.6271 L67.0002,36.5291" id="Stroke-77" stroke="#FFFFFF" stroke-width="2" stroke-linecap="round" stroke-linejoin="round" sketch:type="MSShapeGroup"></path>
        </g>
    </g>
</svg>