<svg height="90" viewBox="0 0 90 90" width="90" xmlns="http://www.w3.org/2000/svg"><g fill="none" fill-rule="evenodd"><path d="m52 66.0296v5.5c0 3.866-3.134 7-7 7s-7-3.134-7-7v-5.5" fill="#a6acb2"/><path d="m52 66.0296v5.5c0 3.866-3.134 7-7 7s-7-3.134-7-7v-5.5" stroke="#232e38" stroke-linecap="round" stroke-linejoin="round" stroke-width="2"/><path d="m49.6667 66.5296h-9.333c-2.394 0-4.334-1.94-4.334-4.333v-3.667h18v3.667c0 2.393-1.94 4.333-4.333 4.333" fill="#a6acb2"/><path d="m49.6667 66.5296h-9.333c-2.394 0-4.334-1.94-4.334-4.333v-3.667h18v3.667c0 2.393-1.94 4.333-4.333 4.333z" stroke="#232e38" stroke-linecap="round" stroke-linejoin="round" stroke-width="2"/><path d="m63 38.5296c0-10.618-9.193-19.088-20.053-17.886-8.476.938-15.228 7.944-15.891 16.446-.473 6.072 2.076 11.559 6.296 15.143 1.73 1.47 2.648 3.684 2.648 5.954v.343h18v-.504c0-2.197.909-4.328 2.59-5.744 3.917-3.298 6.41-8.23 6.41-13.752" fill="#fc0"/><g stroke-linecap="round" stroke-linejoin="round" stroke-width="2"><path d="m63 38.5296c0-10.618-9.193-19.088-20.053-17.886-8.476.938-15.228 7.944-15.891 16.446-.473 6.072 2.076 11.559 6.296 15.143 1.73 1.47 2.648 3.684 2.648 5.954v.343h18v-.504c0-2.197.909-4.328 2.59-5.744 3.917-3.298 6.41-8.23 6.41-13.752z" stroke="#383128"/><path d="m38.9 74.5296h12.3" stroke="#232e38"/><path d="m38.1 70.5296h13.9" stroke="#232e38"/><path d="m56.7 44.5296c-1.45 3.038-3.605 4.089-4.867 5.975" stroke="#fff"/><path d="m34.3289 30.119c2.504-3.249 6.435-5.342 10.854-5.342" stroke="#fff"/><path d="m31.6076 36.647c.154-1.156.452-2.266.876-3.312" stroke="#fff"/><path d="m30.2375 56.5296-1.238.685" stroke="#fff"/><path d="m28.3593 52.5296-3.359 1.102" stroke="#fff"/><path d="m25 48.5296-1.414-.039" stroke="#fff"/><path d="m24.5342 44.6271-3.534-.098" stroke="#fff"/><path d="m23.4137 40.5686-1.414-.039" stroke="#fff"/><path d="m23.5342 36.5296-3.534-.098" stroke="#fff"/><path d="m25.0404 29.334-3.04-1.804" stroke="#fff"/><path d="m30 23.0434-2.486-2.514" stroke="#fff"/><path d="m37 18.6884-1.588-3.159" stroke="#fff"/><path d="m44.1357 16.5355.018-3.535" stroke="#fff"/><path d="m63.9596 28.5296 3.04-1.804" stroke="#fff"/><path d="m58.3586 21.9599 2.323-2.665" stroke="#fff"/><path d="m51.1748 17.5575 1.825-3.028" stroke="#fff"/><path d="m60.5589 56.7346-1.279-.603" stroke="#fff"/><path d="m65.1269 53.5296-3.127-1.65" stroke="#fff"/><path d="m66 48.5686-1.414-.039" stroke="#fff"/><path d="m69 44.5296-3.534-.098" stroke="#fff"/><path d="m68 40.5296-1.414-.039" stroke="#fff"/><path d="m67.3442 32.09-1.344.44" stroke="#fff"/><path d="m62.9737 23.6147-1.063.933" stroke="#fff"/><path d="m55.9109 18.4444-.885 1.103" stroke="#fff"/><path d="m48.0918 15.1183-.092 1.411" stroke="#fff"/><path d="m22.6558 32.09 1.344.44" stroke="#fff"/><path d="m26.1294 24.6546 1.085.907" stroke="#fff"/><path d="m32.1358 19.4979.814 1.157" stroke="#fff"/><path d="m40.8574 15.5296.143 1.407" stroke="#fff"/><path d="m70.5342 36.6271-3.534-.098" stroke="#fff"/></g></g></svg>