<?xml version="1.0" encoding="UTF-8" standalone="no"?>
<svg width="90px" height="90px" viewBox="0 0 90 90" version="1.1" xmlns="http://www.w3.org/2000/svg" xmlns:xlink="http://www.w3.org/1999/xlink" xmlns:sketch="http://www.bohemiancoding.com/sketch/ns">
    <!-- Generator: Sketch 3.5.1 (25234) - http://www.bohemiancoding.com/sketch -->
    <title>lamp-uit</title>
    <desc>Created with Sketch.</desc>
    <defs></defs>
    <g id="Page-1" stroke="none" stroke-width="1" fill="none" fill-rule="evenodd" sketch:type="MSPage">
        <g id="lamp-uit" sketch:type="MSArtboardGroup">
            <g id="Group-6" sketch:type="MSLayerGroup">
                <path d="M52,66.0296 L52,71.5296 C52,75.3956 48.866,78.5296 45,78.5296 C41.134,78.5296 38,75.3956 38,71.5296 L38,66.0296" id="Fill-3" fill="#A6ACB2" sketch:type="MSShapeGroup"></path>
                <path d="M52,66.0296 L52,71.5296 C52,75.3956 48.866,78.5296 45,78.5296 C41.134,78.5296 38,75.3956 38,71.5296 L38,66.0296" id="Stroke-5" stroke="#232E38" stroke-width="2" stroke-linecap="round" stroke-linejoin="round" sketch:type="MSShapeGroup"></path>
            </g>
            <path d="M49.6667,66.5296 L40.3337,66.5296 C37.9397,66.5296 35.9997,64.5896 35.9997,62.1966 L35.9997,58.5296 L53.9997,58.5296 L53.9997,62.1966 C53.9997,64.5896 52.0597,66.5296 49.6667,66.5296" id="Fill-7" fill="#A6ACB2" sketch:type="MSShapeGroup"></path>
            <path d="M49.6667,66.5296 L40.3337,66.5296 C37.9397,66.5296 35.9997,64.5896 35.9997,62.1966 L35.9997,58.5296 L53.9997,58.5296 L53.9997,62.1966 C53.9997,64.5896 52.0597,66.5296 49.6667,66.5296 L49.6667,66.5296 Z" id="Stroke-9" stroke="#232E38" stroke-width="2" stroke-linecap="round" stroke-linejoin="round" sketch:type="MSShapeGroup"></path>
            <path d="M63,38.5296 C63,27.9116 53.807,19.4416 42.947,20.6436 C34.471,21.5816 27.719,28.5876 27.056,37.0896 C26.583,43.1616 29.132,48.6486 33.352,52.2326 C35.082,53.7026 36,55.9166 36,58.1866 L36,58.5296 L54,58.5296 L54,58.0256 C54,55.8286 54.909,53.6976 56.59,52.2816 C60.507,48.9836 63,44.0516 63,38.5296" id="Fill-11" fill="#D1D1D1" sketch:type="MSShapeGroup"></path>
            <path d="M63,38.5296 C63,27.9116 53.807,19.4416 42.947,20.6436 C34.471,21.5816 27.719,28.5876 27.056,37.0896 C26.583,43.1616 29.132,48.6486 33.352,52.2326 C35.082,53.7026 36,55.9166 36,58.1866 L36,58.5296 L54,58.5296 L54,58.0256 C54,55.8286 54.909,53.6976 56.59,52.2816 C60.507,48.9836 63,44.0516 63,38.5296 L63,38.5296 Z" id="Stroke-13" stroke="#383128" stroke-width="2" stroke-linecap="round" stroke-linejoin="round" sketch:type="MSShapeGroup"></path>
            <path d="M38.9,74.5296 L51.2,74.5296" id="Stroke-15" stroke="#232E38" stroke-width="2" stroke-linecap="round" stroke-linejoin="round" sketch:type="MSShapeGroup"></path>
            <path d="M38.1,70.5296 L52,70.5296" id="Stroke-17" stroke="#232E38" stroke-width="2" stroke-linecap="round" stroke-linejoin="round" sketch:type="MSShapeGroup"></path>
            <path d="M56.7,44.5296 C55.25,47.5676 53.095,48.6186 51.833,50.5046" id="Stroke-19" stroke="#FFFFFF" stroke-width="2" stroke-linecap="round" stroke-linejoin="round" sketch:type="MSShapeGroup"></path>
            <path d="M34.3289,30.119 C36.8329,26.87 40.7639,24.777 45.1829,24.777" id="Stroke-21" stroke="#FFFFFF" stroke-width="2" stroke-linecap="round" stroke-linejoin="round" sketch:type="MSShapeGroup"></path>
            <path d="M31.6076,36.647 C31.7616,35.491 32.0596,34.381 32.4836,33.335" id="Stroke-23" stroke="#FFFFFF" stroke-width="2" stroke-linecap="round" stroke-linejoin="round" sketch:type="MSShapeGroup"></path>
        </g>
    </g>
</svg>