<?xml version="1.0" encoding="UTF-8" standalone="no"?>
<svg width="90px" height="90px" viewBox="0 0 90 90" version="1.1" xmlns="http://www.w3.org/2000/svg" xmlns:xlink="http://www.w3.org/1999/xlink" xmlns:sketch="http://www.bohemiancoding.com/sketch/ns">
    <!-- Generator: Sketch 3.5.1 (25234) - http://www.bohemiancoding.com/sketch -->
    <title>muziek-aan</title>
    <desc>Created with Sketch.</desc>
    <defs>
        <path id="path-1" d="M0,0 L90,0 L90,90 L0,90 L0,0 Z"></path>
    </defs>
    <g id="Page-1" stroke="none" stroke-width="1" fill="none" fill-rule="evenodd" sketch:type="MSPage">
        <g id="muziek-aan" sketch:type="MSArtboardGroup">
            <path d="M55.5932,68.7508 L35.5932,68.7508 C34.4882,68.7508 33.5932,67.8558 33.5932,66.7508 L33.5932,24.7508 C33.5932,23.6458 34.4882,22.7508 35.5932,22.7508 L55.5932,22.7508 C56.6982,22.7508 57.5932,23.6458 57.5932,24.7508 L57.5932,66.7508 C57.5932,67.8558 56.6982,68.7508 55.5932,68.7508" id="Fill-3" fill="#FFFFFF" sketch:type="MSShapeGroup"></path>
            <mask id="mask-2" sketch:name="Clip 6" fill="white">
                <use xlink:href="#path-1"></use>
            </mask>
            <g id="Clip-6"></g>
            <path d="M57.593,56.751 L33.593,56.751 L33.593,30.751 L57.593,30.751 L57.593,56.751 Z" id="Fill-5" fill="#83AEED" sketch:type="MSShapeGroup" mask="url(#mask-2)"></path>
            <path d="M57.5932,26.7508 L57.5932,66.7508 C57.5932,67.8558 56.6982,68.7508 55.5932,68.7508 L35.5932,68.7508 C34.4882,68.7508 33.5932,67.8558 33.5932,66.7508 L33.5932,24.7508 C33.5932,23.6458 34.4882,22.7508 35.5932,22.7508 L47.5932,22.7508 L55.5932,22.7508 C55.5932,22.7508 57.5932,22.7508 57.5932,26.7508 L57.5932,26.7508 Z" id="Stroke-7" stroke="#0E1011" stroke-width="2" stroke-linecap="round" stroke-linejoin="round" sketch:type="MSShapeGroup" mask="url(#mask-2)"></path>
            <path d="M57.5932,56.7508 L33.5932,56.7508" id="Stroke-8" stroke="#0E1011" stroke-width="2" stroke-linecap="round" stroke-linejoin="round" sketch:type="MSShapeGroup" mask="url(#mask-2)"></path>
            <path d="M33.5932,30.7508 L56.5932,30.7508" id="Stroke-9" stroke="#0E1011" stroke-width="2" stroke-linecap="round" stroke-linejoin="round" sketch:type="MSShapeGroup" mask="url(#mask-2)"></path>
            <path d="M43.5932,26.7508 L47.5932,26.7508" id="Stroke-10" stroke="#0E1011" stroke-width="2" stroke-linecap="round" stroke-linejoin="round" sketch:type="MSShapeGroup" mask="url(#mask-2)"></path>
            <path d="M47.5932,62.7508 C47.5932,63.8558 46.6982,64.7508 45.5932,64.7508 C44.4882,64.7508 43.5932,63.8558 43.5932,62.7508 C43.5932,61.6458 44.4882,60.7508 45.5932,60.7508 C46.6982,60.7508 47.5932,61.6458 47.5932,62.7508" id="Fill-11" fill="#5B6875" sketch:type="MSShapeGroup" mask="url(#mask-2)"></path>
            <path d="M47.5932,62.7508 C47.5932,63.8558 46.6982,64.7508 45.5932,64.7508 C44.4882,64.7508 43.5932,63.8558 43.5932,62.7508 C43.5932,61.6458 44.4882,60.7508 45.5932,60.7508 C46.6982,60.7508 47.5932,61.6458 47.5932,62.7508 L47.5932,62.7508 Z" id="Stroke-12" stroke="#0E1011" stroke-width="2" stroke-linecap="round" stroke-linejoin="round" sketch:type="MSShapeGroup" mask="url(#mask-2)"></path>
            <path d="M62.6234,69.0876 L58.2114,70.4366 C57.6764,70.5906 57.2434,71.1466 57.2434,71.6826 L57.2434,76.3366 C57.2434,76.3366 56.9244,76.1216 56.2124,76.2226 C55.1654,76.3696 54.3174,77.1726 54.3174,78.0136 C54.3174,78.8556 55.1654,79.3736 56.2124,79.2246 C57.2574,79.0766 58.0254,78.2986 58.0254,77.4556 L58.0254,73.4816 C58.0254,73.1076 58.4734,72.9486 58.4734,72.9486 L62.3754,71.7246 C62.3754,71.7246 62.8074,71.5816 62.8074,71.9806 L62.8074,75.1736 C62.8074,75.1736 62.4104,74.9446 61.6964,75.0296 C60.6514,75.1576 59.8034,75.9426 59.8034,76.7846 C59.8034,77.6266 60.6514,78.1596 61.6964,78.0336 C62.7434,77.9056 63.5914,77.1196 63.5914,76.2786 L63.5914,69.7796 C63.5914,69.2446 63.1584,68.9346 62.6234,69.0876" id="Fill-13" fill="#000000" sketch:type="MSShapeGroup" mask="url(#mask-2)"></path>
            <path d="M76.6138,35.8328 L70.9998,34.9998 C70.3248,34.8878 69.5498,35.2768 69.2668,35.8718 L66.8078,41.0418 C66.8078,41.0418 66.5658,40.6338 65.7218,40.3698 C64.4808,39.9798 63.1158,40.4238 62.6708,41.3588 C62.2258,42.2938 62.8938,43.3158 64.1358,43.7038 C65.3738,44.0928 66.6388,43.6338 67.0838,42.6978 L69.1838,38.2838 C69.3818,37.8678 69.9638,37.9288 69.9638,37.9288 L74.9448,38.6308 C74.9448,38.6308 75.5008,38.6998 75.2898,39.1438 L73.6028,42.6898 C73.6028,42.6898 73.2818,42.2258 72.4448,41.9428 C71.2148,41.5328 69.8588,41.9568 69.4138,42.8918 C68.9688,43.8268 69.6288,44.8668 70.8568,45.2798 C72.0878,45.6908 73.4438,45.2658 73.8888,44.3308 L77.3228,37.1128 C77.6058,36.5188 77.2898,35.9448 76.6138,35.8328" id="Fill-14" fill="#000000" sketch:type="MSShapeGroup" mask="url(#mask-2)"></path>
            <path d="M26.4271,43.091 L21.0001,44.751 C20.3421,44.94 19.8101,45.624 19.8101,46.282 L19.8101,52.007 C19.8101,52.007 19.4161,51.743 18.5411,51.867 C17.2531,52.048 16.2101,53.036 16.2101,54.071 C16.2101,55.107 17.2531,55.743 18.5411,55.56 C19.8261,55.378 20.7711,54.421 20.7711,53.384 L20.7711,48.496 C20.7711,48.036 21.3221,47.84 21.3221,47.84 L26.1221,46.335 C26.1221,46.335 26.6541,46.158 26.6541,46.65 L26.6541,50.577 C26.6541,50.577 26.1641,50.295 25.2871,50.4 C24.0011,50.557 22.9581,51.523 22.9581,52.559 C22.9581,53.594 24.0011,54.25 25.2871,54.095 C26.5751,53.937 27.6171,52.971 27.6171,51.936 L27.6171,43.942 C27.6171,43.284 27.0851,42.902 26.4271,43.091" id="Fill-15" fill="#000000" sketch:type="MSShapeGroup" mask="url(#mask-2)"></path>
        </g>
    </g>
</svg>