<svg height="90" viewBox="0 0 90 90" width="90" xmlns="http://www.w3.org/2000/svg"><g fill="none" fill-rule="evenodd"><path d="m29 28.2v-16.2" stroke="#232e38" stroke-linecap="round" stroke-linejoin="round" stroke-width="2"/><path d="m70.4 33.6v25.2c0 2.982-2.418 5.4-5.4 5.4h-39.6c-2.982 0-5.4-2.418-5.4-5.4v-25.2c0-2.982 2.418-5.4 5.4-5.4h39.6c2.982 0 5.4 2.418 5.4 5.4" fill="#e45544"/><path d="m70.4 33.6v25.2c0 2.982-2.418 5.4-5.4 5.4h-39.6c-2.982 0-5.4-2.418-5.4-5.4v-25.2c0-2.982 2.418-5.4 5.4-5.4h39.6c2.982 0 5.4 2.418 5.4 5.4z" stroke="#3f291e" stroke-linecap="round" stroke-linejoin="round" stroke-width="2"/><path d="m65 36.3c0 1.491-1.209 2.7-2.7 2.7h-34.2c-1.491 0-2.7-1.209-2.7-2.7s1.209-2.7 2.7-2.7h34.2c1.491 0 2.7 1.209 2.7 2.7" fill="#fff"/><path d="m65 36.3c0 1.491-1.209 2.7-2.7 2.7h-34.2c-1.491 0-2.7-1.209-2.7-2.7s1.209-2.7 2.7-2.7h34.2c1.491 0 2.7 1.209 2.7 2.7z" stroke="#3f291e" stroke-linecap="round" stroke-linejoin="round" stroke-width="2"/><path d="m54.2 51.6c0 4.971-4.029 9-9 9s-9-4.029-9-9 4.029-9 9-9 9 4.029 9 9" fill="#5b6875"/><g stroke-linecap="round" stroke-linejoin="round" stroke-width="2"><path d="m54.2 51.6c0 4.971-4.029 9-9 9s-9-4.029-9-9 4.029-9 9-9 9 4.029 9 9z" stroke="#0e1011"/><path d="m36.3803 49.8h17.639" stroke="#0e1011"/><path d="m37.9999 46.2h14.4" stroke="#0e1011"/><path d="m36.3802 53.4h17.639" stroke="#0e1011"/><path d="m37.9999 57h14.4" stroke="#0e1011"/><path d="m56 38.1v-1.8" stroke="#3f291e"/></g><path d="m65 56.1c0 1.491-1.209 2.7-2.7 2.7s-2.7-1.209-2.7-2.7 1.209-2.7 2.7-2.7 2.7 1.209 2.7 2.7" fill="#5b6875"/><path d="m65 56.1c0 1.491-1.209 2.7-2.7 2.7s-2.7-1.209-2.7-2.7 1.209-2.7 2.7-2.7 2.7 1.209 2.7 2.7z" stroke="#0e1011" stroke-linecap="round" stroke-linejoin="round" stroke-width="2"/><path d="m30.8 56.1c0 1.491-1.209 2.7-2.7 2.7s-2.7-1.209-2.7-2.7 1.209-2.7 2.7-2.7 2.7 1.209 2.7 2.7" fill="#5b6875"/><path d="m30.8 56.1c0 1.491-1.209 2.7-2.7 2.7s-2.7-1.209-2.7-2.7 1.209-2.7 2.7-2.7 2.7 1.209 2.7 2.7z" stroke="#0e1011" stroke-linecap="round" stroke-linejoin="round" stroke-width="2"/></g></svg>