<?xml version="1.0" encoding="UTF-8" standalone="no"?>
<svg width="90px" height="90px" viewBox="0 0 90 90" version="1.1" xmlns="http://www.w3.org/2000/svg" xmlns:xlink="http://www.w3.org/1999/xlink" xmlns:sketch="http://www.bohemiancoding.com/sketch/ns">
    <!-- Generator: Sketch 3.5.1 (25234) - http://www.bohemiancoding.com/sketch -->
    <title>muziek-aan</title>
    <desc>Created with Sketch.</desc>
    <defs></defs>
    <g id="Page-1" stroke="none" stroke-width="1" fill="none" fill-rule="evenodd" sketch:type="MSPage">
        <g id="muziek-aan" sketch:type="MSArtboardGroup">
            <path d="M53.3651866,39.4508 L42.8311866,49.9848 C42.7931866,49.2738 42.5141866,48.5728 41.9711866,48.0288 C41.4271866,47.4858 40.7261866,47.2068 40.0151866,47.1688 L50.5491866,36.6348 L50.4501866,36.5358 C46.0111866,33.2578 40.3251866,33.0938 37.0011866,36.4178 C36.2041866,37.2148 35.6101866,38.1468 35.2101866,39.1648 C34.2551866,41.5988 31.8031866,43.0358 29.1891866,43.0518 C26.1331866,43.0708 23.2851866,44.1038 21.1731866,46.2158 C16.1781866,51.2108 17.1901866,60.3218 23.4341866,66.5658 C29.6781866,72.8098 38.7891866,73.8218 43.7841866,68.8268 C45.8961866,66.7148 46.9291866,63.8668 46.9481866,60.8108 C46.9641866,58.1968 48.4011866,55.7448 50.8351866,54.7898 C51.8531866,54.3898 52.7851866,53.7958 53.5821866,52.9988 C56.9061866,49.6748 56.7421866,43.9888 53.4641866,39.5498 L53.3651866,39.4508 Z" id="Fill-3" fill="#FC982B" sketch:type="MSShapeGroup"></path>
            <path d="M53.3651866,39.4508 L42.8311866,49.9848 C42.7931866,49.2738 42.5141866,48.5728 41.9711866,48.0288 C41.4271866,47.4858 40.7261866,47.2068 40.0151866,47.1688 L50.5491866,36.6348 L50.4501866,36.5358 C46.0111866,33.2578 40.3251866,33.0938 37.0011866,36.4178 C36.2041866,37.2148 35.6101866,38.1468 35.2101866,39.1648 C34.2551866,41.5988 31.8031866,43.0358 29.1891866,43.0518 C26.1331866,43.0708 23.2851866,44.1038 21.1731866,46.2158 C16.1781866,51.2108 17.1901866,60.3218 23.4341866,66.5658 C29.6781866,72.8098 38.7891866,73.8218 43.7841866,68.8268 C45.8961866,66.7148 46.9291866,63.8668 46.9481866,60.8108 C46.9641866,58.1968 48.4011866,55.7448 50.8351866,54.7898 C51.8531866,54.3898 52.7851866,53.7958 53.5821866,52.9988 C56.9061866,49.6748 56.7421866,43.9888 53.4641866,39.5498 L53.3651866,39.4508 L53.3651866,39.4508 Z" id="Stroke-5" stroke="#383128" stroke-width="2" stroke-linecap="round" stroke-linejoin="round" sketch:type="MSShapeGroup"></path>
            <path d="M41.9709866,52.2529 C40.8049866,53.4189 38.9139866,53.4189 37.7469866,52.2529 C36.5809866,51.0869 36.5809866,49.1959 37.7469866,48.0289 C38.9139866,46.8629 40.8049866,46.8629 41.9709866,48.0289 C43.1369866,49.1959 43.1369866,51.0869 41.9709866,52.2529" id="Fill-7" fill="#755B49" sketch:type="MSShapeGroup"></path>
            <path d="M41.9709866,52.2529 C40.8049866,53.4189 38.9139866,53.4189 37.7469866,52.2529 C36.5809866,51.0869 36.5809866,49.1959 37.7469866,48.0289 C38.9139866,46.8629 40.8049866,46.8629 41.9709866,48.0289 C43.1369866,49.1959 43.1369866,51.0869 41.9709866,52.2529 L41.9709866,52.2529 Z" id="Stroke-9" stroke="#383128" stroke-width="2" stroke-linecap="round" stroke-linejoin="round" sketch:type="MSShapeGroup"></path>
            <path d="M66.3683866,19.4079 L65.6643866,18.7039" id="Stroke-11" stroke="#222222" stroke-width="2" stroke-linecap="round" stroke-linejoin="round" sketch:type="MSShapeGroup"></path>
            <path d="M63.5524866,22.2238 L62.8484866,21.5198" id="Stroke-13" stroke="#222222" stroke-width="2" stroke-linecap="round" stroke-linejoin="round" sketch:type="MSShapeGroup"></path>
            <path d="M71.4088866,24.248 L70.7018866,23.541" id="Stroke-15" stroke="#222222" stroke-width="2" stroke-linecap="round" stroke-linejoin="round" sketch:type="MSShapeGroup"></path>
            <path d="M68.4802866,27.1516 L67.7762866,26.4476" id="Stroke-17" stroke="#222222" stroke-width="2" stroke-linecap="round" stroke-linejoin="round" sketch:type="MSShapeGroup"></path>
            <path d="M67.7762866,18 L62.1442866,23.632 L62.8482866,24.336 L40.0152866,47.169 C40.7262866,47.206 41.4272866,47.486 41.9712866,48.029 C42.5142866,48.572 42.7932866,49.274 42.8312866,49.985 L65.6642866,27.152 L66.3682866,27.856 L72.0002866,22.224 L67.7762866,18 Z" id="Fill-19" fill="#AA8566" sketch:type="MSShapeGroup"></path>
            <path d="M67.7762866,18 L62.1442866,23.632 L62.8482866,24.336 L40.0152866,47.169 C40.7262866,47.206 41.4272866,47.486 41.9712866,48.029 C42.5142866,48.572 42.7932866,49.274 42.8312866,49.985 L65.6642866,27.152 L66.3682866,27.856 L72.0002866,22.224 L67.7762866,18 L67.7762866,18 Z" id="Stroke-21" stroke="#383128" stroke-width="2" stroke-linecap="round" stroke-linejoin="round" sketch:type="MSShapeGroup"></path>
            <path d="M34.9312866,57.8846 L32.1152866,55.0686" id="Stroke-23" stroke="#222222" stroke-width="2" stroke-linecap="round" stroke-linejoin="round" sketch:type="MSShapeGroup"></path>
            <path d="M63.2487,50.8378 L58.8367,52.1868 C58.3017,52.3408 57.8687,52.8968 57.8687,53.4328 L57.8687,58.0868 C57.8687,58.0868 57.5497,57.8718 56.8377,57.9728 C55.7907,58.1198 54.9427,58.9228 54.9427,59.7638 C54.9427,60.6058 55.7907,61.1238 56.8377,60.9748 C57.8827,60.8268 58.6507,60.0488 58.6507,59.2058 L58.6507,55.2318 C58.6507,54.8578 59.0987,54.6988 59.0987,54.6988 L63.0007,53.4748 C63.0007,53.4748 63.4327,53.3318 63.4327,53.7308 L63.4327,56.9238 C63.4327,56.9238 63.0357,56.6948 62.3217,56.7798 C61.2767,56.9078 60.4287,57.6928 60.4287,58.5348 C60.4287,59.3768 61.2767,59.9098 62.3217,59.7838 C63.3687,59.6558 64.2167,58.8698 64.2167,58.0288 L64.2167,51.5298 C64.2167,50.9948 63.7837,50.6848 63.2487,50.8378" id="Fill-25" fill="#000000" sketch:type="MSShapeGroup"></path>
            <path d="M61.4037,67.3965 L55.7897,66.5635 C55.1147,66.4515 54.3397,66.8405 54.0567,67.4355 L51.5977,72.6055 C51.5977,72.6055 51.3557,72.1975 50.5117,71.9335 C49.2707,71.5435 47.9057,71.9875 47.4607,72.9225 C47.0157,73.8575 47.6837,74.8795 48.9257,75.2675 C50.1637,75.6565 51.4287,75.1975 51.8737,74.2615 L53.9737,69.8475 C54.1717,69.4315 54.7537,69.4925 54.7537,69.4925 L59.7347,70.1945 C59.7347,70.1945 60.2907,70.2635 60.0797,70.7075 L58.3927,74.2535 C58.3927,74.2535 58.0717,73.7895 57.2347,73.5065 C56.0057,73.0965 54.6487,73.5205 54.2037,74.4555 C53.7587,75.3905 54.4187,76.4305 55.6467,76.8435 C56.8777,77.2545 58.2337,76.8295 58.6787,75.8945 L62.1127,68.6765 C62.3957,68.0825 62.0797,67.5085 61.4037,67.3965" id="Fill-27" fill="#000000" sketch:type="MSShapeGroup"></path>
            <path d="M24.217,24.8412 L18.79,26.5012 C18.132,26.6902 17.6,27.3742 17.6,28.0322 L17.6,33.7572 C17.6,33.7572 17.206,33.4932 16.331,33.6172 C15.043,33.7982 14,34.7862 14,35.8212 C14,36.8572 15.043,37.4932 16.331,37.3102 C17.616,37.1282 18.561,36.1712 18.561,35.1342 L18.561,30.2462 C18.561,29.7862 19.112,29.5902 19.112,29.5902 L23.912,28.0852 C23.912,28.0852 24.444,27.9082 24.444,28.4002 L24.444,32.3272 C24.444,32.3272 23.954,32.0452 23.077,32.1502 C21.791,32.3072 20.748,33.2732 20.748,34.3092 C20.748,35.3442 21.791,36.0002 23.077,35.8452 C24.365,35.6872 25.407,34.7212 25.407,33.6862 L25.407,25.6922 C25.407,25.0342 24.875,24.6522 24.217,24.8412" id="Fill-29" fill="#000000" sketch:type="MSShapeGroup"></path>
        </g>
    </g>
</svg>