<svg height="90" viewBox="0 0 90 90" width="90" xmlns="http://www.w3.org/2000/svg"><g fill="none" fill-rule="evenodd"><path d="m28.3936 28.5557122v-16.2" stroke="#232e38" stroke-linecap="round" stroke-linejoin="round" stroke-width="2"/><path d="m69.7936 33.9557122v25.2c0 2.982-2.418 5.4-5.4 5.4h-39.6c-2.982 0-5.4-2.418-5.4-5.4v-25.2c0-2.982 2.418-5.4 5.4-5.4h39.6c2.982 0 5.4 2.418 5.4 5.4" fill="#e45544"/><path d="m69.7936 33.9557122v25.2c0 2.982-2.418 5.4-5.4 5.4h-39.6c-2.982 0-5.4-2.418-5.4-5.4v-25.2c0-2.982 2.418-5.4 5.4-5.4h39.6c2.982 0 5.4 2.418 5.4 5.4z" stroke="#3f291e" stroke-linecap="round" stroke-linejoin="round" stroke-width="2"/><path d="m64.3936 36.6557122c0 1.491-1.209 2.7-2.7 2.7h-34.2c-1.491 0-2.7-1.209-2.7-2.7s1.209-2.7 2.7-2.7h34.2c1.491 0 2.7 1.209 2.7 2.7" fill="#fff"/><path d="m64.3936 36.6557122c0 1.491-1.209 2.7-2.7 2.7h-34.2c-1.491 0-2.7-1.209-2.7-2.7s1.209-2.7 2.7-2.7h34.2c1.491 0 2.7 1.209 2.7 2.7z" stroke="#3f291e" stroke-linecap="round" stroke-linejoin="round" stroke-width="2"/><path d="m53.5936 51.9557122c0 4.971-4.029 9-9 9s-9-4.029-9-9 4.029-9 9-9 9 4.029 9 9" fill="#5b6875"/><g stroke-linecap="round" stroke-linejoin="round" stroke-width="2"><path d="m53.5936 51.9557122c0 4.971-4.029 9-9 9s-9-4.029-9-9 4.029-9 9-9 9 4.029 9 9z" stroke="#0e1011"/><path d="m35.7739 50.1557122h17.639" stroke="#0e1011"/><path d="m37.3935 46.5557122h14.4" stroke="#0e1011"/><path d="m35.7738 53.7557122h17.639" stroke="#0e1011"/><path d="m37.3935 57.3557122h14.4" stroke="#0e1011"/><path d="m55.3936 38.4557122v-1.8" stroke="#3f291e"/></g><path d="m64.3936 56.4557122c0 1.491-1.209 2.7-2.7 2.7s-2.7-1.209-2.7-2.7 1.209-2.7 2.7-2.7 2.7 1.209 2.7 2.7" fill="#5b6875"/><path d="m64.3936 56.4557122c0 1.491-1.209 2.7-2.7 2.7s-2.7-1.209-2.7-2.7 1.209-2.7 2.7-2.7 2.7 1.209 2.7 2.7z" stroke="#0e1011" stroke-linecap="round" stroke-linejoin="round" stroke-width="2"/><path d="m30.1936 56.4557122c0 1.491-1.209 2.7-2.7 2.7s-2.7-1.209-2.7-2.7 1.209-2.7 2.7-2.7 2.7 1.209 2.7 2.7" fill="#5b6875"/><path d="m30.1936 56.4557122c0 1.491-1.209 2.7-2.7 2.7s-2.7-1.209-2.7-2.7 1.209-2.7 2.7-2.7 2.7 1.209 2.7 2.7z" stroke="#0e1011" stroke-linecap="round" stroke-linejoin="round" stroke-width="2"/><path d="m58.8994 68.4949122-4.412 1.349c-.535.154-.968.71-.968 1.246v4.654s-.319-.215-1.031-.114c-1.047.147-1.895.95-1.895 1.791 0 .842.848 1.36 1.895 1.211 1.045-.148 1.813-.926 1.813-1.769v-3.974c0-.374.448-.533.448-.533l3.902-1.224s.432-.143.432.256v3.193s-.397-.229-1.111-.144c-1.045.128-1.893.913-1.893 1.755s.848 1.375 1.893 1.249c1.047-.128 1.895-.914 1.895-1.755v-6.499c0-.535-.433-.845-.968-.692" fill="#000"/><path d="m66.781 12.8522122-5.614-.833c-.675-.112-1.45.277-1.733.872l-2.459 5.17s-.242-.408-1.086-.672c-1.241-.39-2.606.054-3.051.989s.223 1.957 1.465 2.345c1.238.389 2.503-.069 2.948-1.006l2.1-4.414c.198-.416.78-.355.78-.355l4.981.702s.556.069.345.513l-1.687 3.546s-.321-.464-1.158-.747c-1.229-.41-2.586.014-3.031.949s.215 1.975 1.443 2.388c1.231.411 2.587-.014 3.032-.949l3.434-7.218c.283-.594-.033-1.168-.709-1.28" fill="#000"/><path d="m21.53 17.6580122-4 1.223c-.485.139-.877.644-.877 1.129v4.219s-.29-.194-.935-.103c-.949.134-1.718.861-1.718 1.624s.769 1.232 1.718 1.097c.947-.133 1.643-.838 1.643-1.603v-3.602c0-.34.407-.484.407-.484l3.537-1.109s.392-.13.392.232v2.894s-.361-.208-1.007-.131c-.948.117-1.716.829-1.716 1.592s.768 1.246 1.716 1.132c.949-.116 1.717-.828 1.717-1.591v-5.892c0-.485-.392-.766-.877-.627" fill="#000"/></g></svg>