<?xml version="1.0" encoding="UTF-8" standalone="no"?>
<svg width="90px" height="90px" viewBox="0 0 90 90" version="1.1" xmlns="http://www.w3.org/2000/svg" xmlns:xlink="http://www.w3.org/1999/xlink" xmlns:sketch="http://www.bohemiancoding.com/sketch/ns">
    <!-- Generator: Sketch 3.5.1 (25234) - http://www.bohemiancoding.com/sketch -->
    <title>muziek-uit</title>
    <desc>Created with Sketch.</desc>
    <defs>
        <path id="path-1" d="M0,0 L90,0 L90,90 L0,90 L0,0 Z"></path>
    </defs>
    <g id="Page-1" stroke="none" stroke-width="1" fill="none" fill-rule="evenodd" sketch:type="MSPage">
        <g id="muziek-uit" sketch:type="MSArtboardGroup">
            <path d="M56,69 L36,69 C34.895,69 34,68.105 34,67 L34,25 C34,23.895 34.895,23 36,23 L56,23 C57.105,23 58,23.895 58,25 L58,67 C58,68.105 57.105,69 56,69" id="Fill-3" fill="#FFFFFF" sketch:type="MSShapeGroup"></path>
            <mask id="mask-2" sketch:name="Clip 6" fill="white">
                <use xlink:href="#path-1"></use>
            </mask>
            <g id="Clip-6"></g>
            <path d="M58,57 L34,57 L34,31 L58,31 L58,57 Z" id="Fill-5" fill="#83AEED" sketch:type="MSShapeGroup" mask="url(#mask-2)"></path>
            <path d="M58,27 L58,67 C58,68.105 57.105,69 56,69 L36,69 C34.895,69 34,68.105 34,67 L34,25 C34,23.895 34.895,23 36,23 L48,23 L56,23 C56,23 58,23 58,27 L58,27 Z" id="Stroke-7" stroke="#0E1011" stroke-width="2" stroke-linecap="round" stroke-linejoin="round" sketch:type="MSShapeGroup" mask="url(#mask-2)"></path>
            <path d="M58,57 L34,57" id="Stroke-8" stroke="#0E1011" stroke-width="2" stroke-linecap="round" stroke-linejoin="round" sketch:type="MSShapeGroup" mask="url(#mask-2)"></path>
            <path d="M34,31 L57,31" id="Stroke-9" stroke="#0E1011" stroke-width="2" stroke-linecap="round" stroke-linejoin="round" sketch:type="MSShapeGroup" mask="url(#mask-2)"></path>
            <path d="M44,27 L48,27" id="Stroke-10" stroke="#0E1011" stroke-width="2" stroke-linecap="round" stroke-linejoin="round" sketch:type="MSShapeGroup" mask="url(#mask-2)"></path>
            <path d="M48,63 C48,64.105 47.105,65 46,65 C44.895,65 44,64.105 44,63 C44,61.895 44.895,61 46,61 C47.105,61 48,61.895 48,63" id="Fill-11" fill="#5B6875" sketch:type="MSShapeGroup" mask="url(#mask-2)"></path>
            <path d="M48,63 C48,64.105 47.105,65 46,65 C44.895,65 44,64.105 44,63 C44,61.895 44.895,61 46,61 C47.105,61 48,61.895 48,63 L48,63 Z" id="Stroke-12" stroke="#0E1011" stroke-width="2" stroke-linecap="round" stroke-linejoin="round" sketch:type="MSShapeGroup" mask="url(#mask-2)"></path>
        </g>
    </g>
</svg>