<?xml version="1.0" encoding="UTF-8" standalone="no"?>
<svg width="90px" height="90px" viewBox="0 0 90 90" version="1.1" xmlns="http://www.w3.org/2000/svg" xmlns:xlink="http://www.w3.org/1999/xlink">
    <!-- Generator: Sketch 3.6.1 (26313) - http://www.bohemiancoding.com/sketch -->
    <title>muziek-uit</title>
    <desc>Created with Sketch.</desc>
    <defs></defs>
    <g id="Page-1" stroke="none" stroke-width="1" fill="none" fill-rule="evenodd">
        <g id="muziek-uit">
            <path d="M29,28.2 L29,12" id="Stroke-3" stroke="#232E38" stroke-width="2" stroke-linecap="round" stroke-linejoin="round"></path>
            <path d="M70.4,33.6 L70.4,58.8 C70.4,61.782 67.982,64.2 65,64.2 L25.4,64.2 C22.418,64.2 20,61.782 20,58.8 L20,33.6 C20,30.618 22.418,28.2 25.4,28.2 L65,28.2 C67.982,28.2 70.4,30.618 70.4,33.6" id="Fill-5" fill="#E45544"></path>
            <path d="M70.4,33.6 L70.4,58.8 C70.4,61.782 67.982,64.2 65,64.2 L25.4,64.2 C22.418,64.2 20,61.782 20,58.8 L20,33.6 C20,30.618 22.418,28.2 25.4,28.2 L65,28.2 C67.982,28.2 70.4,30.618 70.4,33.6 L70.4,33.6 Z" id="Stroke-7" stroke="#3F291E" stroke-width="2" stroke-linecap="round" stroke-linejoin="round"></path>
            <path d="M65,36.3 L65,36.3 C65,37.791 63.791,39 62.3,39 L28.1,39 C26.609,39 25.4,37.791 25.4,36.3 C25.4,34.809 26.609,33.6 28.1,33.6 L62.3,33.6 C63.791,33.6 65,34.809 65,36.3" id="Fill-9" fill="#FFFFFF"></path>
            <path d="M65,36.3 L65,36.3 C65,37.791 63.791,39 62.3,39 L28.1,39 C26.609,39 25.4,37.791 25.4,36.3 C25.4,34.809 26.609,33.6 28.1,33.6 L62.3,33.6 C63.791,33.6 65,34.809 65,36.3 L65,36.3 Z" id="Stroke-11" stroke="#3F291E" stroke-width="2" stroke-linecap="round" stroke-linejoin="round"></path>
            <path d="M54.2,51.6 C54.2,56.571 50.171,60.6 45.2,60.6 C40.229,60.6 36.2,56.571 36.2,51.6 C36.2,46.629 40.229,42.6 45.2,42.6 C50.171,42.6 54.2,46.629 54.2,51.6" id="Fill-13" fill="#5B6875"></path>
            <path d="M54.2,51.6 C54.2,56.571 50.171,60.6 45.2,60.6 C40.229,60.6 36.2,56.571 36.2,51.6 C36.2,46.629 40.229,42.6 45.2,42.6 C50.171,42.6 54.2,46.629 54.2,51.6 L54.2,51.6 Z" id="Stroke-15" stroke="#0E1011" stroke-width="2" stroke-linecap="round" stroke-linejoin="round"></path>
            <path d="M36.3803,49.8 L54.0193,49.8" id="Stroke-17" stroke="#0E1011" stroke-width="2" stroke-linecap="round" stroke-linejoin="round"></path>
            <path d="M37.9999,46.2 L52.3999,46.2" id="Stroke-19" stroke="#0E1011" stroke-width="2" stroke-linecap="round" stroke-linejoin="round"></path>
            <path d="M36.3802,53.4 L54.0192,53.4" id="Stroke-21" stroke="#0E1011" stroke-width="2" stroke-linecap="round" stroke-linejoin="round"></path>
            <path d="M37.9999,57 L52.3999,57" id="Stroke-23" stroke="#0E1011" stroke-width="2" stroke-linecap="round" stroke-linejoin="round"></path>
            <path d="M56,38.1 L56,36.3" id="Stroke-25" stroke="#3F291E" stroke-width="2" stroke-linecap="round" stroke-linejoin="round"></path>
            <path d="M65,56.1 C65,57.591 63.791,58.8 62.3,58.8 C60.809,58.8 59.6,57.591 59.6,56.1 C59.6,54.609 60.809,53.4 62.3,53.4 C63.791,53.4 65,54.609 65,56.1" id="Fill-27" fill="#5B6875"></path>
            <path d="M65,56.1 C65,57.591 63.791,58.8 62.3,58.8 C60.809,58.8 59.6,57.591 59.6,56.1 C59.6,54.609 60.809,53.4 62.3,53.4 C63.791,53.4 65,54.609 65,56.1 L65,56.1 Z" id="Stroke-29" stroke="#0E1011" stroke-width="2" stroke-linecap="round" stroke-linejoin="round"></path>
            <path d="M30.8,56.1 C30.8,57.591 29.591,58.8 28.1,58.8 C26.609,58.8 25.4,57.591 25.4,56.1 C25.4,54.609 26.609,53.4 28.1,53.4 C29.591,53.4 30.8,54.609 30.8,56.1" id="Fill-31" fill="#5B6875"></path>
            <path d="M30.8,56.1 C30.8,57.591 29.591,58.8 28.1,58.8 C26.609,58.8 25.4,57.591 25.4,56.1 C25.4,54.609 26.609,53.4 28.1,53.4 C29.591,53.4 30.8,54.609 30.8,56.1 L30.8,56.1 Z" id="Stroke-33" stroke="#0E1011" stroke-width="2" stroke-linecap="round" stroke-linejoin="round"></path>
        </g>
    </g>
</svg>