<svg height="42" viewBox="0 0 42 42" width="42" xmlns="http://www.w3.org/2000/svg"><path d="m28.5 27.75v-13.5c0-.2187511-.0703118-.3984368-.2109375-.5390625s-.3203114-.2109375-.5390625-.2109375h-13.5c-.2187511 0-.3984368.0703118-.5390625.2109375s-.2109375.3203114-.2109375.5390625v13.5c0 .2187511.0703118.3984368.2109375.5390625s.3203114.2109375.5390625.2109375h13.5c.2187511 0 .3984368-.0703118.5390625-.2109375s.2109375-.3203114.2109375-.5390625zm10.5-6.75c0 3.2656413-.8046795 6.27733-2.4140625 9.0351562-1.609383 2.7578263-3.792955 4.9413983-6.5507813 6.5507813-2.7578262 1.609383-5.7695149 2.4140625-9.0351562 2.4140625s-6.27733-.8046795-9.0351562-2.4140625c-2.75782634-1.609383-4.94139825-3.792955-6.5507813-6.5507813-1.60938305-2.7578262-2.4140625-5.7695149-2.4140625-9.0351562s.80467945-6.27733 2.4140625-9.0351562c1.60938305-2.75782634 3.79295496-4.94139825 6.5507813-6.5507813 2.7578262-1.60938305 5.7695149-2.4140625 9.0351562-2.4140625s6.27733.80467945 9.0351562 2.4140625c2.7578263 1.60938305 4.9413983 3.79295496 6.5507813 6.5507813 1.609383 2.7578262 2.4140625 5.7695149 2.4140625 9.0351562z" fill="#fff" fill-rule="evenodd"/></svg>