<svg height="42" viewBox="0 0 42 42" width="42" xmlns="http://www.w3.org/2000/svg"><path d="m21 3c3.2656413 0 6.27733.80467945 9.0351562 2.4140625 2.7578263 1.60938305 4.9413983 3.79295496 6.5507813 6.5507813 1.609383 2.7578262 2.4140625 5.7695149 2.4140625 9.0351562s-.8046795 6.27733-2.4140625 9.0351562c-1.609383 2.7578263-3.792955 4.9413983-6.5507813 6.5507813-2.7578262 1.609383-5.7695149 2.4140625-9.0351562 2.4140625s-6.27733-.8046795-9.0351562-2.4140625c-2.75782634-1.609383-4.94139825-3.792955-6.5507813-6.5507813-1.60938305-2.7578262-2.4140625-5.7695149-2.4140625-9.0351562s.80467945-6.27733 2.4140625-9.0351562c1.60938305-2.75782634 3.79295496-4.94139825 6.5507813-6.5507813 2.7578262-1.60938305 5.7695149-2.4140625 9.0351562-2.4140625zm9 19.2890625c.5000025-.2812514.75-.7109346.75-1.2890625s-.2499975-1.0078111-.75-1.2890625l-12.75-7.5c-.4843774-.2968765-.9843724-.3046889-1.5-.0234375-.5000025.2968765-.75.7343721-.75 1.3125v15c0 .5781279.2499975 1.0156235.75 1.3125.2500013.1250006.4999987.1875.75.1875.2656263 0 .5156238-.0703118.75-.2109375z" fill="#fff" fill-rule="evenodd"/></svg>