<?xml version="1.0" encoding="UTF-8" standalone="no"?>
<svg width="90px" height="90px" viewBox="0 0 90 90" version="1.1" xmlns="http://www.w3.org/2000/svg" xmlns:xlink="http://www.w3.org/1999/xlink" xmlns:sketch="http://www.bohemiancoding.com/sketch/ns">
    <!-- Generator: Sketch 3.5.1 (25234) - http://www.bohemiancoding.com/sketch -->
    <title>raam</title>
    <desc>Created with Sketch.</desc>
    <defs></defs>
    <g id="Page-1" stroke="none" stroke-width="1" fill="none" fill-rule="evenodd" sketch:type="MSPage">
        <g id="raam" sketch:type="MSArtboardGroup">
            <path d="M68.1547,72.2498 L21.7157,72.2498 L21.7157,68.0658 L68.1547,68.0658 L68.1547,72.2498 Z" id="Fill-3" fill="#83AEED" sketch:type="MSShapeGroup"></path>
            <path d="M63.9717,67.6478 L25.0807,67.6478 L25.0807,18.8368 L63.9717,18.8368 L63.9717,67.6478 Z" id="Fill-5" fill="#83AEED" sketch:type="MSShapeGroup"></path>
            <path d="M43.4707,64.7188 L28.8277,64.7188 L28.8277,21.6268 L43.4707,21.6268 L43.4707,64.7188 Z" id="Fill-6" fill="#EFEBE1" sketch:type="MSShapeGroup"></path>
            <path d="M61.0427,64.7188 L46.3997,64.7188 L46.3997,21.6268 L61.0427,21.6268 L61.0427,64.7188 Z" id="Fill-7" fill="#EFEBE1" sketch:type="MSShapeGroup"></path>
            <path d="M50.5833,21.6263 C50.5833,21.6263 51.9783,48.5413 60.6243,58.0243 L60.6243,21.6263 L50.5833,21.6263 Z" id="Fill-8" fill="#FFCC00" sketch:type="MSShapeGroup"></path>
            <path d="M50.5833,21.6263 C50.5833,21.6263 51.9783,48.5413 60.6243,58.0243 L60.6243,21.6263 L50.5833,21.6263 L50.5833,21.6263 Z" id="Stroke-9" stroke="#383128" stroke-width="0.25" stroke-linecap="round" stroke-linejoin="round" sketch:type="MSShapeGroup"></path>
            <path d="M29.2463,57.188 C29.2463,57.188 37.6133,51.331 39.2873,21.626 L29.2463,21.626 L29.2463,57.188 Z" id="Fill-10" fill="#FFCC00" sketch:type="MSShapeGroup"></path>
            <path d="M29.2463,57.188 C29.2463,57.188 37.6133,51.331 39.2873,21.626 L29.2463,21.626 L29.2463,57.188 L29.2463,57.188 Z" id="Stroke-11" stroke="#383128" stroke-width="0.25" stroke-linecap="round" stroke-linejoin="round" sketch:type="MSShapeGroup"></path>
            <path d="M30.101,22.796 L30.101,55.972 C31.345,54.037 33.178,50.628 34.752,45.478 C37.064,37.908 38.205,26.12 38.493,22.796 L36.766,22.796 C36.563,25.066 35.919,31.778 35.04,36.073 C34.947,36.526 34.502,36.817 34.051,36.725 C33.598,36.632 33.306,36.191 33.399,35.738 C34.232,31.67 34.87,25.171 35.086,22.796 L34.177,22.796 C34.035,24.636 33.612,29.264 32.758,32.285 C32.633,32.729 32.17,32.989 31.726,32.862 C31.281,32.736 31.023,32.273 31.149,31.829 C31.933,29.051 32.348,24.664 32.497,22.796 L30.101,22.796 Z M30.101,63.965 L42.485,63.965 L42.485,22.796 L40.173,22.796 C39.908,25.982 38.779,38.026 36.352,45.968 C33.933,53.885 30.944,57.832 30.101,58.838 L30.101,63.965 Z M43.322,65.639 L29.264,65.639 C28.803,65.639 28.428,65.264 28.428,64.802 L28.428,21.959 C28.428,21.499 28.803,21.123 29.264,21.123 L43.322,21.123 C43.785,21.123 44.159,21.499 44.159,21.959 L44.159,64.802 C44.159,65.264 43.785,65.639 43.322,65.639 L43.322,65.639 Z M51.498,22.796 C51.786,26.12 52.927,37.908 55.239,45.48 C56.82,50.651 58.65,54.053 59.89,55.98 L59.89,22.796 L57.164,22.796 C57.313,24.664 57.728,29.052 58.513,31.829 C58.639,32.273 58.381,32.736 57.936,32.862 C57.49,32.986 57.027,32.729 56.903,32.285 C56.048,29.264 55.627,24.636 55.485,22.796 L54.576,22.796 C54.793,25.171 55.429,31.67 56.261,35.738 C56.354,36.191 56.061,36.632 55.609,36.725 C55.156,36.818 54.715,36.526 54.621,36.073 C53.742,31.778 53.099,25.066 52.896,22.796 L51.498,22.796 Z M47.506,63.965 L59.89,63.965 L59.89,58.838 C59.047,57.834 56.058,53.885 53.64,45.968 C51.213,38.026 50.085,25.982 49.819,22.798 L47.506,22.798 L47.506,63.965 Z M60.727,65.639 L46.669,65.639 C46.207,65.639 45.832,65.264 45.832,64.802 L45.832,21.959 C45.832,21.499 46.207,21.123 46.669,21.123 L60.726,21.123 C61.188,21.123 61.562,21.499 61.562,21.959 L61.562,64.802 C61.564,65.264 61.188,65.639 60.727,65.639 L60.727,65.639 Z M26.754,67.354 L63.237,67.354 L63.237,19.673 L26.754,19.673 L26.754,67.354 Z M22.673,70.994 L67.318,70.994 L67.318,69.028 L22.673,69.028 L22.673,70.994 Z M68.155,72.668 L21.836,72.668 C21.374,72.668 21,72.292 21,71.831 L21,68.191 C21,67.729 21.374,67.354 21.836,67.354 L25.081,67.354 L25.081,18.837 C25.081,18.374 25.456,18 25.917,18 L64.074,18 C64.535,18 64.911,18.374 64.911,18.837 L64.911,67.354 L68.155,67.354 C68.617,67.354 68.992,67.729 68.992,68.191 L68.992,71.831 C68.992,72.292 68.617,72.668 68.155,72.668 L68.155,72.668 Z" id="Fill-12" fill="#232E38" sketch:type="MSShapeGroup"></path>
        </g>
    </g>
</svg>