<svg height="90" viewBox="0 0 90 90" width="90" xmlns="http://www.w3.org/2000/svg" xmlns:xlink="http://www.w3.org/1999/xlink"><mask id="a" fill="#fff"><path d="m14 85.9660079h61.9967624v-81.9660079h-61.9967624z" fill="none"/></mask><g fill="#535050" fill-rule="evenodd"><path d="m55.9972621 46.5951014c-.7276501 0-1.4127258-.282892-1.928637-.797446-.5155875-.5126208-.7990392-1.1937525-.7995248-1.9183811 0-.7238232.2834517-1.4059215.7990391-1.9177368 6.0080105-5.9816503 6.0080105-15.7100078.0004857-21.6873084-.5152637-.5135874-.7990392-1.1947191-.7990392-1.9193478 0-.7247897.2837755-1.406888.7990392-1.9195088.5159112-.5135874 1.2017963-.7955128 1.931389-.7955128.7281358 0 1.4120783.2819254 1.9263708.7937407 3.9340052 3.915057 6.1002819 9.1297092 6.1002819 14.6829941-.0004856 5.5532849-2.1675718 10.7669705-6.1010913 14.6820275-.5160732.5135874-1.200987.7964794-1.9283134.7964794z"/><path d="m63.1318433 58.2348322c-.7286214 0-1.4140208-.2828919-1.9296083-.7956739-1.0632272-1.058106-1.0641984-2.7813948-.0008094-3.839662 6.0253316-5.9959882 9.3435457-13.9794696 9.3440313-22.4812102.0003238-8.5025462-3.3182141-16.4869942-9.3440313-22.48298237-1.063389-1.05810609-1.0624178-2.78155599.0017807-3.84046758.5146162-.51278193 1.19953-.79470727 1.927342-.79470727.7281358 0 1.4130496.28240864 1.9281514.79551277 7.0535927 7.01865225 10.9380627 16.36649115 10.9380627 26.32183895 0 9.9553477-3.88447 19.3031866-10.937577 26.3226444-.5151018.5118153-1.1992063.7947072-1.9273421.7947072"/><path d="m33.9995326 46.5951014c-.7276501 0-1.4127258-.282892-1.928637-.7964794-3.9336815-3.915057-6.100282-9.1287426-6.1007677-14.6820275 0-5.5532849 2.1662768-10.7679371 6.0997964-14.6829941.514778-.5118153 1.1987206-.7937407 1.9268564-.7937407.7295927 0 1.4149921.2819254 1.9305796.7955128.5160731.5135874.7998486 1.1947191.7998486 1.9195088 0 .7246287-.2837755 1.4057604-.7993629 1.9193478-6.0076867 5.9773006-6.0072011 15.7064636.0003237 21.6865029.5160731.5126208.7995248 1.1947191.7995248 1.9185423-.0004856.7246286-.2839373 1.4057603-.7990391 1.9183811-.5163969.514554-1.2014726.797446-1.9291228.797446"/><path d="m26.8645144 58.2348322c-.7276502-.0008055-1.4122402-.2828919-1.9268564-.7947072-7.0531071-7.0194578-10.9375771-16.3672967-10.9375771-26.3226444 0-9.9553478 3.88447-19.3031867 10.9375771-26.32183895.5155874-.51310413 1.2005013-.79551277 1.9281514-.79551277.7281358 0 1.4127258.28192534 1.9278277.79470727 1.0641984 1.05891159 1.0650078 2.78236149.0017807 3.84046758-6.0258173 5.99598817-9.344517 13.98043617-9.3440314 22.48298237.0004857 8.5017406 3.3186998 16.485222 9.3440314 22.4812102 1.0632271 1.0582672 1.0624177 2.781556-.0017807 3.8406287-.5151019.5118153-1.2005013.7947072-1.9286371.7947072z"/><path d="m49.6953749 35.7915933c-2.5944491 2.5801808-6.7994412 2.5811474-9.3938903 0-2.5944491-2.5827583-2.5926684-6.7666915 0-9.3478389 2.5954204-2.5827583 6.7976606-2.5819528 9.3921097.0009666 2.594449 2.5809863 2.5962297 6.7649195.0017806 9.3468723"/><path d="m70.1775687 81.971464-20.4954517-37.3240157c-.8448512-1.5383457-2.4659165-2.4951198-4.2274935-2.4951198-1.761577 0-3.3826423.9567741-4.2273316 2.4951198l-20.4956136 37.3240157c-.987953 1.799167.3205222 3.9944794 2.3806058 3.9944794.9918381 0 1.9045169-.5385579 2.380282-1.4044715l19.9620574-36.3277721 19.9620574 36.3277721c.4757651.8659136 1.3886058 1.4044715 2.380282 1.4044715 2.0602455 0 3.3685588-2.1953124 2.3806058-3.9944794"/><path d="m33.6672742 64.9216503h24.5693211v-4.4956621h-24.5693211z" mask="url(#a)"/><path d="m27.3516919 78.5455717h37.2003238v-4.4956621h-37.2003238z" mask="url(#a)"/></g></svg>