<svg height="42" viewBox="0 0 42 42" width="42" xmlns="http://www.w3.org/2000/svg"><g fill-rule="evenodd"><path d="m20.9539407 28.597c-2.012037 0-3.6429259 1.6185-3.6429259 3.6045s1.6308889 3.597 3.6429259 3.597c2.0105186 0 3.6414074-1.611 3.6414074-3.597s-1.6308888-3.6045-3.6414074-3.6045"/><path d="m20.9539407 21.403c-3.2329259 0-6.2821111 1.4055-8.370074 3.861-.6468889.756-.5451482 1.8915.2247407 2.5305.3386296.288.7531852.423 1.1692593.423.5223703 0 1.0371481-.2175 1.400074-.639 1.387926-1.641 3.4227408-2.5785 5.576-2.5785 2.1532593 0 4.1865556.9375 5.5744815 2.5785.3629259.4215.8792222.639 1.4000741.639.4160741 0 .8306296-.135 1.1692593-.423.7714074-.639.8716296-1.7745.2247407-2.5305-2.087963-2.4555-5.1356296-3.861-8.3685556-3.861"/><path d="m20.9539407 14.2015c-5.3801111 0-10.4641111 2.343-13.94607403 6.4335-.64688889.762-.55122223 1.8975.22018518 2.5365.34318519.282.75925926.4215 1.17381482.4215.51629629 0 1.03259259-.216 1.394-.6375 2.78800003-3.276 6.85155553-5.157 11.15807403-5.157 4.3065186 0 8.3685556 1.881 11.1565556 5.157.3629259.4215.8777037.6375 1.394.6375.4160741 0 .8306296-.1335 1.1753333-.4215.7714074-.639.8716297-1.7745.2186667-2.5365-3.481963-4.0905-8.5644444-6.4335-13.9445556-6.4335"/><path d="m40.4805704 16.012c-4.875963-5.7255-11.9932593-9.012-19.5266297-9.012-7.5333703 0-14.65218514 3.2865-19.52814811 9.012-.64688889.762-.54514815 1.8975.22625926 2.5365.33711111.282.75318519.4215 1.16774074.4215.52237037 0 1.03866667-.216 1.394-.6375 4.182-4.917 10.28037041-7.7355 16.74014811-7.7355 6.4537037 0 12.5566297 2.8185 16.7386297 7.7295.3553333.4275.8716296.6435 1.394.6435.4145555 0 .8306296-.1395 1.1692592-.4215.7698889-.639.8716297-1.7745.2247408-2.5365"/></g></svg>