<svg height="76" viewBox="0 0 91 76" width="91" xmlns="http://www.w3.org/2000/svg"><g fill="none" fill-rule="evenodd" transform="matrix(.20791169 -.9781476 .9781476 .20791169 -4.46896 58.452864)"><path d="m.92136332 22.8375518c3.10756398 35.1088613.90440502 51.6242887 2.34720258 73.653517 16.4823683-12.5223494 56.5831674-13.0843557 72.7136914-16.7680941-9.9508166-26.5512534-19.4813092-46.4198274-26.2537207-67.9791429-10.7088166-21.55931555-51.2653603-10.35933379-48.80717328 11.09372" fill="#1d3c49"/><g fill="#fefefe"><path d="m14.8718698 42.3866324c-.2691963-4.1087852-3.9364051-3.2681372-3.7947229-.3187851.1629346 4.0214145.7296636 20.8863248 1.2751402 28.376593.2597508 3.6247042 4.0214145 3.107564 3.7498569.082648-.2196075-2.4605484-.713134-20.435303-1.2302742-28.1404559"/><path d="m50.4416706 35.0496171c-1.3412586-3.6483179-4.6707915-1.9316013-3.7545796.7060499 1.2208287 3.6058132 6.2033211 18.754007 8.7040128 25.4083499 1.2042991 3.2209098 4.7014893 1.7615826 3.6506793-.9091277-.8666231-2.1771839-6.0805298-18.352574-8.6001125-25.2052721"/><path d="m38.1209823 38.286112c-1.0555328-3.7286046-4.5031342-2.2433023-3.7900002.4439377.9374642 3.6742929 4.743994 19.0940443 6.7251841 25.8947923.9539938 3.2870282 4.5527229 2.0756449 3.7026294-.6588225-.694243-2.2244113-4.6495391-18.6808045-6.6378133-25.6799075"/><path d="m26.6473176 40.8918846c-.5927041-3.9245982-4.1914332-2.8360063-3.8112525-.0094454.4722742 3.8608412 2.3519254 20.0433154 3.4806606 27.2124372.5383926 3.464131 4.2528288 2.6730717 3.7474955-.2172461-.4132399-2.3519254-2.3070593-19.6088232-3.4169036-26.9857457"/></g></g></svg>