<?xml version="1.0" encoding="UTF-8" standalone="no"?>
<svg width="90px" height="90px" viewBox="0 0 90 90" version="1.1" xmlns="http://www.w3.org/2000/svg" xmlns:xlink="http://www.w3.org/1999/xlink" xmlns:sketch="http://www.bohemiancoding.com/sketch/ns">
    <!-- Generator: Sketch 3.5.1 (25234) - http://www.bohemiancoding.com/sketch -->
    <title>stroom</title>
    <desc>Created with Sketch.</desc>
    <defs></defs>
    <g id="Page-1" stroke="none" stroke-width="1" fill="none" fill-rule="evenodd" sketch:type="MSPage">
        <g id="stroom" sketch:type="MSArtboardGroup">
            <path d="M31.0004124,72.646 L48.9244124,54.64 C49.6604124,53.905 49.1354124,52.65 48.0964124,52.65 L46.6664124,52.65 C45.6924124,52.65 45.1434124,51.524 45.7504124,50.76 L55.2554124,38.775 C55.8624124,38.011 55.3194124,36.885 54.3394124,36.885 L49.5604124,36.885 C48.5984124,36.885 48.0494124,35.788 48.6274124,35.017 L60.7694124,18.867 C61.3474124,18.096 60.7984124,17 59.8354124,17 L40.6334124,17 C40.1904124,17 39.7814124,17.251 39.5894124,17.647 L30.2014124,36.64 C29.8154124,37.416 30.3814124,38.326 31.2454124,38.326 L35.5744124,38.326 C36.4384124,38.326 37.0044124,39.236 36.6194124,40.012 L30.2014124,53 C29.8154124,53.776 30.3814124,54.686 31.2454124,54.686 L35.3244124,54.686 C36.1874124,54.686 36.7474124,55.585 36.3744124,56.361 L29.1274124,71.316 C28.5494124,72.5 30.0724124,73.58 31.0004124,72.646" id="Fill-3" fill="#ABCED2" sketch:type="MSShapeGroup"></path>
            <path d="M31.0004124,72.646 L48.9244124,54.64 C49.6604124,53.905 49.1354124,52.65 48.0964124,52.65 L46.6664124,52.65 C45.6924124,52.65 45.1434124,51.524 45.7504124,50.76 L55.2554124,38.775 C55.8624124,38.011 55.3194124,36.885 54.3394124,36.885 L49.5604124,36.885 C48.5984124,36.885 48.0494124,35.788 48.6274124,35.017 L60.7694124,18.867 C61.3474124,18.096 60.7984124,17 59.8354124,17 L40.6334124,17 C40.1904124,17 39.7814124,17.251 39.5894124,17.647 L30.2014124,36.64 C29.8154124,37.416 30.3814124,38.326 31.2454124,38.326 L35.5744124,38.326 C36.4384124,38.326 37.0044124,39.236 36.6194124,40.012 L30.2014124,53 C29.8154124,53.776 30.3814124,54.686 31.2454124,54.686 L35.3244124,54.686 C36.1874124,54.686 36.7474124,55.585 36.3744124,56.361 L29.1274124,71.316 C28.5494124,72.5 30.0724124,73.58 31.0004124,72.646 L31.0004124,72.646 Z" id="Stroke-5" stroke="#232E38" stroke-width="2" stroke-linecap="round" stroke-linejoin="round" sketch:type="MSShapeGroup"></path>
        </g>
    </g>
</svg>