<?xml version="1.0" encoding="UTF-8" standalone="no"?>
<svg width="90px" height="90px" viewBox="0 0 90 90" version="1.1" xmlns="http://www.w3.org/2000/svg" xmlns:xlink="http://www.w3.org/1999/xlink" xmlns:sketch="http://www.bohemiancoding.com/sketch/ns">
    <!-- Generator: Sketch 3.5.1 (25234) - http://www.bohemiancoding.com/sketch -->
    <title>telefoon</title>
    <desc>Created with Sketch.</desc>
    <defs></defs>
    <g id="Page-1" stroke="none" stroke-width="1" fill="none" fill-rule="evenodd" sketch:type="MSPage">
        <g id="telefoon" sketch:type="MSArtboardGroup">
            <path d="M61.5575383,69.5126478 L65.8265383,65.2436478 C67.5305383,63.5396478 67.3555383,60.7296478 65.4545383,59.2496478 L58.7715383,54.0476478 C57.3155383,52.9146478 55.2745383,52.9226478 53.8275383,54.0656478 L52.3415383,55.2396478 C50.7475383,56.4996478 48.4625383,56.3656478 47.0255383,54.9296478 L35.0705383,42.9746478 C33.6345383,41.5376478 33.5005383,39.2526478 34.7605383,37.6586478 L35.9345383,36.1726478 C37.0775383,34.7246478 37.0855383,32.6846478 35.9525383,31.2286478 L30.7505383,24.5456478 C29.2705383,22.6446478 26.4595383,22.4696478 24.7565383,24.1736478 L20.4875383,28.4426478 C17.5455383,31.3846478 17.5575383,39.6326478 33.9625383,56.0376478 C50.3665383,72.4416478 58.8515383,72.2186478 61.5575383,69.5126478" id="Fill-3" fill="#FFFFFF" sketch:type="MSShapeGroup"></path>
            <path d="M61.5575383,69.5126478 L65.8265383,65.2436478 C67.5305383,63.5396478 67.3555383,60.7296478 65.4545383,59.2496478 L58.7715383,54.0476478 C57.3155383,52.9146478 55.2745383,52.9226478 53.8275383,54.0656478 L52.3415383,55.2396478 C50.7475383,56.4996478 48.4625383,56.3656478 47.0255383,54.9296478 L35.0705383,42.9746478 C33.6345383,41.5376478 33.5005383,39.2526478 34.7605383,37.6586478 L35.9345383,36.1726478 C37.0775383,34.7246478 37.0855383,32.6846478 35.9525383,31.2286478 L30.7505383,24.5456478 C29.2705383,22.6446478 26.4595383,22.4696478 24.7565383,24.1736478 L20.4875383,28.4426478 C17.5455383,31.3846478 17.5575383,39.6326478 33.9625383,56.0376478 C50.3665383,72.4416478 58.8515383,72.2186478 61.5575383,69.5126478 L61.5575383,69.5126478 Z" id="Stroke-5" stroke="#2B3F14" stroke-width="2" stroke-linecap="round" stroke-linejoin="round" sketch:type="MSShapeGroup"></path>
            <path d="M71,44 C71,30.193 59.807,19 46,19" id="Stroke-7" stroke="#2B3F14" stroke-width="2" stroke-linecap="round" stroke-linejoin="round" sketch:type="MSShapeGroup"></path>
            <path d="M46,25 C56.493,25 65,33.507 65,44" id="Stroke-9" stroke="#2B3F14" stroke-width="2" stroke-linecap="round" stroke-linejoin="round" sketch:type="MSShapeGroup"></path>
            <path d="M46,31 C53.18,31 59,36.82 59,44" id="Stroke-11" stroke="#2B3F14" stroke-width="2" stroke-linecap="round" stroke-linejoin="round" sketch:type="MSShapeGroup"></path>
            <path d="M46,37 C49.866,37 53,40.134 53,44" id="Stroke-13" stroke="#2B3F14" stroke-width="2" stroke-linecap="round" stroke-linejoin="round" sketch:type="MSShapeGroup"></path>
        </g>
    </g>
</svg>