<svg height="90" viewBox="0 0 90 90" width="90" xmlns="http://www.w3.org/2000/svg"><g fill="none" fill-rule="evenodd"><path d="m78.5711753 45.4905118c0 18.4954992-14.9032601 33.4905119-33.2855877 33.4905119-18.3837747 0-33.2855876-14.9950127-33.2855876-33.4905119s14.9018129-33.4905118 33.2855876-33.4905118c18.3823276 0 33.2855877 14.9950126 33.2855877 33.4905118" fill="#abcfd3"/><path d="m78.5711753 45.4905118c0 18.4954992-14.9032601 33.4905119-33.2855877 33.4905119-18.3837747 0-33.2855876-14.9950127-33.2855876-33.4905119s14.9018129-33.4905118 33.2855876-33.4905118c18.3823276 0 33.2855877 14.9950126 33.2855877 33.4905118z" stroke="#232e38" stroke-linecap="round" stroke-linejoin="round" stroke-width="2"/><path d="m72.9935796 45.666075c0 15.2789539-12.3113259 27.666075-27.4967898 27.666075-15.185464 0-27.4967898-12.3871211-27.4967898-27.666075s12.3113258-27.666075 27.4967898-27.666075c15.1854639 0 27.4967898 12.3871211 27.4967898 27.666075" fill="#fefefe"/><path d="m72.9935796 45.666075c0 15.2789539-12.3113259 27.666075-27.4967898 27.666075-15.185464 0-27.4967898-12.3871211-27.4967898-27.666075s12.3113258-27.666075 27.4967898-27.666075c15.1854639 0 27.4967898 12.3871211 27.4967898 27.666075z" stroke="#232e38" stroke-linecap="round" stroke-linejoin="round" stroke-width="2"/><path d="m47.7887978 45.9122184c0 1.6090007-1.2952435 2.9122184-2.8943989 2.9122184s-2.8943989-1.3032177-2.8943989-2.9122184 1.2952435-2.9122184 2.8943989-2.9122184 2.8943989 1.3032177 2.8943989 2.9122184z" stroke="#212221" stroke-linecap="round" stroke-linejoin="round" stroke-width="2"/><g fill="#212221"><path d="m46.8943989 23.4561092c0 .8037723-.6483453 1.4561092-1.4471994 1.4561092s-1.4471995-.6523369-1.4471995-1.4561092.6483454-1.4561092 1.4471995-1.4561092 1.4471994.6523369 1.4471994 1.4561092"/><path d="m57.8943989 26.4561092c0 .8037723-.6483453 1.4561092-1.4471994 1.4561092s-1.4471995-.6523369-1.4471995-1.4561092.6483454-1.4561092 1.4471995-1.4561092 1.4471994.6523369 1.4471994 1.4561092"/><path d="m64.8943989 34.4561092c0 .8037723-.6483453 1.4561092-1.4471994 1.4561092s-1.4471995-.6523369-1.4471995-1.4561092.6483454-1.4561092 1.4471995-1.4561092 1.4471994.6523369 1.4471994 1.4561092"/><path d="m68.8943989 45.4561092c0 .8037723-.6483453 1.4561092-1.4471994 1.4561092s-1.4471995-.6523369-1.4471995-1.4561092.6483454-1.4561092 1.4471995-1.4561092 1.4471994.6523369 1.4471994 1.4561092"/><path d="m64.8943989 56.4561092c0 .8037723-.6483453 1.4561092-1.4471994 1.4561092s-1.4471995-.6523369-1.4471995-1.4561092.6483454-1.4561092 1.4471995-1.4561092 1.4471994.6523369 1.4471994 1.4561092"/><path d="m57.8943989 64.4561092c0 .8037723-.6483453 1.4561092-1.4471994 1.4561092s-1.4471995-.6523369-1.4471995-1.4561092.6483454-1.4561092 1.4471995-1.4561092 1.4471994.6523369 1.4471994 1.4561092"/><path d="m46.8943989 67.4561092c0 .8037723-.6483453 1.4561092-1.4471994 1.4561092s-1.4471995-.6523369-1.4471995-1.4561092.6483454-1.4561092 1.4471995-1.4561092 1.4471994.6523369 1.4471994 1.4561092"/><path d="m36.8943989 64.4561092c0 .8037723-.6483453 1.4561092-1.4471994 1.4561092s-1.4471995-.6523369-1.4471995-1.4561092.6483454-1.4561092 1.4471995-1.4561092 1.4471994.6523369 1.4471994 1.4561092"/><path d="m27.8943989 56.4561092c0 .8037723-.6483453 1.4561092-1.4471994 1.4561092s-1.4471995-.6523369-1.4471995-1.4561092.6483454-1.4561092 1.4471995-1.4561092 1.4471994.6523369 1.4471994 1.4561092"/><path d="m25.8943989 45.4561092c0 .8037723-.6483453 1.4561092-1.4471994 1.4561092s-1.4471995-.6523369-1.4471995-1.4561092.6483454-1.4561092 1.4471995-1.4561092 1.4471994.6523369 1.4471994 1.4561092"/><path d="m27.8943989 34.4561092c0 .8037723-.6483453 1.4561092-1.4471994 1.4561092s-1.4471995-.6523369-1.4471995-1.4561092.6483454-1.4561092 1.4471995-1.4561092 1.4471994.6523369 1.4471994 1.4561092"/><path d="m36.8943989 26.4561092c0 .8037723-.6483453 1.4561092-1.4471994 1.4561092s-1.4471995-.6523369-1.4471995-1.4561092.6483454-1.4561092 1.4471995-1.4561092 1.4471994.6523369 1.4471994 1.4561092"/></g></g></svg>