<svg height="90" viewBox="0 0 90 90" width="90" xmlns="http://www.w3.org/2000/svg"><g fill="none" fill-rule="evenodd"><path d="m58.5 21.617c.221 6.368 3.515 9.662 9.883 9.883-2.993 5.625-1.787 10.125 3.617 13.5-5.404 3.375-6.61 7.875-3.617 13.5-6.368.22-9.662 3.515-9.883 9.882-5.625-2.993-10.125-1.787-13.5 3.618-3.375-5.405-7.875-6.611-13.5-3.618-.221-6.367-3.515-9.662-9.883-9.882 2.993-5.625 1.787-10.125-3.617-13.5 5.404-3.375 6.61-7.875 3.617-13.5 6.368-.221 9.662-3.515 9.883-9.883 5.625 2.993 10.125 1.787 13.5-3.617 3.375 5.404 7.875 6.61 13.5 3.617" fill="#fc982b"/><path d="m58.5 21.617c.221 6.368 3.515 9.662 9.883 9.883-2.993 5.625-1.787 10.125 3.617 13.5-5.404 3.375-6.61 7.875-3.617 13.5-6.368.22-9.662 3.515-9.883 9.882-5.625-2.993-10.125-1.787-13.5 3.618-3.375-5.405-7.875-6.611-13.5-3.618-.221-6.367-3.515-9.662-9.883-9.882 2.993-5.625 1.787-10.125-3.617-13.5 5.404-3.375 6.61-7.875 3.617-13.5 6.368-.221 9.662-3.515 9.883-9.883 5.625 2.993 10.125 1.787 13.5-3.617 3.375 5.404 7.875 6.61 13.5 3.617z" stroke="#383128" stroke-linecap="round" stroke-linejoin="round" stroke-width="2"/><path d="m62 44.9996c0 9.389-7.611 17-17 17s-17-7.611-17-17 7.611-17 17-17 17 7.611 17 17" fill="#fc0"/><g stroke-linecap="round" stroke-linejoin="round" stroke-width="2"><path d="m62 44.9996c0 9.389-7.611 17-17 17s-17-7.611-17-17 7.611-17 17-17 17 7.611 17 17z" stroke="#383128"/><path d="m32 44.9996c0-7.18 5.82-13 13-13" stroke="#fff"/></g></g></svg>