<svg height="90" viewBox="0 0 90 90" width="90" xmlns="http://www.w3.org/2000/svg"><g fill="none" fill-rule="evenodd"><path d="m65.903 31.662c.06-.546.097-1.099.097-1.662 0-8.284-6.716-15-15-15-6.429 0-11.898 4.053-14.032 9.737-1.365-1.085-3.089-1.737-4.968-1.737-4.418 0-8 3.582-8 8 0 .231.015.459.035.685-4.676 1.639-8.035 6.08-8.035 11.315 0 6.627 5.373 12 12 12h2 30 2c6.627 0 12-5.373 12-12 0-5.259-3.388-9.717-8.097-11.338" fill="#81d4ef"/><g stroke-linecap="round" stroke-linejoin="round" stroke-width="2"><path d="m65.903 31.662c.06-.546.097-1.099.097-1.662 0-8.284-6.716-15-15-15-6.429 0-11.898 4.053-14.032 9.737-1.365-1.085-3.089-1.737-4.968-1.737-4.418 0-8 3.582-8 8 0 .231.015.459.035.685-4.676 1.639-8.035 6.08-8.035 11.315 0 6.627 5.373 12 12 12h2 30 2c6.627 0 12-5.373 12-12 0-5.259-3.388-9.717-8.097-11.338z" stroke="#232e38"/><path d="m62 31.0001c6.627 0 12 5.373 12 12" stroke="#232e38"/><path d="m16 43.0001c0-6.627 5.373-12 12-12" stroke="#232e38"/><path d="m32 23.0001c3.081 0 5.755 1.741 7.091 4.294" stroke="#232e38"/><path d="m64 64.0001-1-1" stroke="#fff"/><path d="m58.5 63.0001-2.5-2.5" stroke="#fff"/><path d="m51 61.0001-1-1" stroke="#fff"/><path d="m55.5 68.0001-2.5-2.5" stroke="#fff"/><path d="m49 65.0001-1-1" stroke="#fff"/><path d="m64 69.5001-2.5-2.5" stroke="#fff"/><path d="m44 61.0001-1-1" stroke="#fff"/><path d="m53 73.5001-2.5-2.5" stroke="#fff"/><path d="m40 63.0001-1-1" stroke="#fff"/><path d="m46 69.5001-2.5-2.5" stroke="#fff"/><path d="m39 68.0001-1-1" stroke="#fff"/><path d="m35 64.0001-2.5-2.5" stroke="#fff"/><path d="m33 68.0001-1-1" stroke="#fff"/><path d="m45 75.0001-2.5-2.5" stroke="#fff"/><path d="m38 73.0001-1-1" stroke="#fff"/></g></g></svg>