<?xml version="1.0" encoding="UTF-8" standalone="no"?>
<svg width="90px" height="90px" viewBox="0 0 90 90" version="1.1" xmlns="http://www.w3.org/2000/svg" xmlns:xlink="http://www.w3.org/1999/xlink" xmlns:sketch="http://www.bohemiancoding.com/sketch/ns">
    <!-- Generator: Sketch 3.5.1 (25234) - http://www.bohemiancoding.com/sketch -->
    <title>weer-slecht</title>
    <desc>Created with Sketch.</desc>
    <defs></defs>
    <g id="Page-1" stroke="none" stroke-width="1" fill="none" fill-rule="evenodd" sketch:type="MSPage">
        <g id="weer-slecht" sketch:type="MSArtboardGroup">
            <path d="M65.903,31.662 C65.963,31.116 66,30.563 66,30 C66,21.716 59.284,15 51,15 C44.571,15 39.102,19.053 36.968,24.737 C35.603,23.652 33.879,23 32,23 C27.582,23 24,26.582 24,31 C24,31.231 24.015,31.459 24.035,31.685 C19.359,33.324 16,37.765 16,43 C16,49.627 21.373,55 28,55 L30,55 L60,55 L62,55 C68.627,55 74,49.627 74,43 C74,37.741 70.612,33.283 65.903,31.662" id="Fill-3" fill="#81D4EF" sketch:type="MSShapeGroup"></path>
            <path d="M65.903,31.662 C65.963,31.116 66,30.563 66,30 C66,21.716 59.284,15 51,15 C44.571,15 39.102,19.053 36.968,24.737 C35.603,23.652 33.879,23 32,23 C27.582,23 24,26.582 24,31 C24,31.231 24.015,31.459 24.035,31.685 C19.359,33.324 16,37.765 16,43 C16,49.627 21.373,55 28,55 L30,55 L60,55 L62,55 C68.627,55 74,49.627 74,43 C74,37.741 70.612,33.283 65.903,31.662 L65.903,31.662 Z" id="Stroke-5" stroke="#232E38" stroke-width="2" stroke-linecap="round" stroke-linejoin="round" sketch:type="MSShapeGroup"></path>
            <path d="M62,31.0001 C68.627,31.0001 74,36.3731 74,43.0001" id="Stroke-7" stroke="#232E38" stroke-width="2" stroke-linecap="round" stroke-linejoin="round" sketch:type="MSShapeGroup"></path>
            <path d="M16,43.0001 C16,36.3731 21.373,31.0001 28,31.0001" id="Stroke-9" stroke="#232E38" stroke-width="2" stroke-linecap="round" stroke-linejoin="round" sketch:type="MSShapeGroup"></path>
            <path d="M32,23.0001 C35.081,23.0001 37.755,24.7411 39.091,27.2941" id="Stroke-11" stroke="#232E38" stroke-width="2" stroke-linecap="round" stroke-linejoin="round" sketch:type="MSShapeGroup"></path>
            <path d="M64,64.0001 L63,63.0001" id="Stroke-13" stroke="#FFFFFF" stroke-width="2" stroke-linecap="round" stroke-linejoin="round" sketch:type="MSShapeGroup"></path>
            <path d="M58.5,63.0001 L56,60.5001" id="Stroke-15" stroke="#FFFFFF" stroke-width="2" stroke-linecap="round" stroke-linejoin="round" sketch:type="MSShapeGroup"></path>
            <path d="M51,61.0001 L50,60.0001" id="Stroke-17" stroke="#FFFFFF" stroke-width="2" stroke-linecap="round" stroke-linejoin="round" sketch:type="MSShapeGroup"></path>
            <path d="M55.5,68.0001 L53,65.5001" id="Stroke-19" stroke="#FFFFFF" stroke-width="2" stroke-linecap="round" stroke-linejoin="round" sketch:type="MSShapeGroup"></path>
            <path d="M49,65.0001 L48,64.0001" id="Stroke-21" stroke="#FFFFFF" stroke-width="2" stroke-linecap="round" stroke-linejoin="round" sketch:type="MSShapeGroup"></path>
            <path d="M64,69.5001 L61.5,67.0001" id="Stroke-23" stroke="#FFFFFF" stroke-width="2" stroke-linecap="round" stroke-linejoin="round" sketch:type="MSShapeGroup"></path>
            <path d="M44,61.0001 L43,60.0001" id="Stroke-25" stroke="#FFFFFF" stroke-width="2" stroke-linecap="round" stroke-linejoin="round" sketch:type="MSShapeGroup"></path>
            <path d="M53,73.5001 L50.5,71.0001" id="Stroke-27" stroke="#FFFFFF" stroke-width="2" stroke-linecap="round" stroke-linejoin="round" sketch:type="MSShapeGroup"></path>
            <path d="M40,63.0001 L39,62.0001" id="Stroke-29" stroke="#FFFFFF" stroke-width="2" stroke-linecap="round" stroke-linejoin="round" sketch:type="MSShapeGroup"></path>
            <path d="M46,69.5001 L43.5,67.0001" id="Stroke-31" stroke="#FFFFFF" stroke-width="2" stroke-linecap="round" stroke-linejoin="round" sketch:type="MSShapeGroup"></path>
            <path d="M39,68.0001 L38,67.0001" id="Stroke-33" stroke="#FFFFFF" stroke-width="2" stroke-linecap="round" stroke-linejoin="round" sketch:type="MSShapeGroup"></path>
            <path d="M35,64.0001 L32.5,61.5001" id="Stroke-35" stroke="#FFFFFF" stroke-width="2" stroke-linecap="round" stroke-linejoin="round" sketch:type="MSShapeGroup"></path>
            <path d="M33,68.0001 L32,67.0001" id="Stroke-37" stroke="#FFFFFF" stroke-width="2" stroke-linecap="round" stroke-linejoin="round" sketch:type="MSShapeGroup"></path>
            <path d="M45,75.0001 L42.5,72.5001" id="Stroke-39" stroke="#FFFFFF" stroke-width="2" stroke-linecap="round" stroke-linejoin="round" sketch:type="MSShapeGroup"></path>
            <path d="M38,73.0001 L37,72.0001" id="Stroke-41" stroke="#FFFFFF" stroke-width="2" stroke-linecap="round" stroke-linejoin="round" sketch:type="MSShapeGroup"></path>
        </g>
    </g>
</svg>